<?xml version="1.0" encoding="utf-8"?>
<!DOCTYPE svg PUBLIC "-//W3C//DTD SVG 1.1//EN" "http://www.w3.org/Graphics/SVG/1.1/DTD/svg11.dtd">
<svg version="1.1" id="Layer_1" xmlns="http://www.w3.org/2000/svg" xmlns:xlink="http://www.w3.org/1999/xlink" x="0px" y="0px"
width="2257px" height="2257px" viewBox="0 0 2257 2257" enable-background="new 0 0 2257 2257" xml:space="preserve">
<rect x="0" y="0" width="2257" height="2257" fill="rgb(255,255,255)" /><g transform="translate(122,122)"><g><defs>
    <radialGradient id="grad">
    <stop offset="5%" stop-color="rgb(38,139,210)" />
    <stop offset="95%" stop-color="rgb(2,119,189)" />
    </radialGradient>
<mask id="gmask"><g>
<g transform="translate(488,0) scale(0.61,0.61)"><g transform="" style="fill: rgb(255, 255, 255);">
<g>
	<path d="M100,40.625V100H0V40.625L50,0L100,40.625z"/>
</g>
</g></g><g transform="translate(671,0) scale(0.61,0.61)"><g transform="" style="fill: rgb(255, 255, 255);">
<g>
	<path d="M100,65.625c0,9.506-3.354,17.611-10.059,24.316S75.131,100,65.625,100h-31.25c-9.505,0-17.611-3.354-24.316-10.059
		S0,75.131,0,65.625v-31.25c0-9.505,3.353-17.611,10.059-24.316S24.87,0,34.375,0h31.25c9.506,0,17.611,3.353,24.316,10.059
		S100,24.87,100,34.375V65.625z"/>
</g>
</g></g><g transform="translate(976,0) scale(0.61,0.61)"><g transform="" style="fill: rgb(255, 255, 255);">
<g>
	<path d="M100,40.625V100H0V40.625L50,0L100,40.625z"/>
</g>
</g></g><g transform="translate(1098,0) scale(0.61,0.61)"><g transform="" style="fill: rgb(255, 255, 255);">
<g>
	<path d="M40.625,0H100v100H40.625L0,50L40.625,0z"/>
</g>
</g></g><g transform="translate(1159,0) scale(0.61,0.61)"><g transform="" style="fill: rgb(255, 255, 255);">
<rect width="100" height="100"/>
</g></g><g transform="translate(1220,0) scale(0.61,0.61)"><g transform="" style="fill: rgb(255, 255, 255);">
<rect width="100" height="100"/>
</g></g><g transform="translate(1281,0) scale(0.61,0.61)"><g transform="" style="fill: rgb(255, 255, 255);">
<g>
	<path d="M100,34.375c0-9.505-3.354-17.611-10.059-24.316S75.131,0,65.625,0H0v100h100V34.375z"/>
</g>
</g></g><g transform="translate(1403,0) scale(0.61,0.61)"><g transform="" style="fill: rgb(255, 255, 255);">
<g>
	<path d="M100,40.625V100H0V40.625L50,0L100,40.625z"/>
</g>
</g></g><g transform="translate(488,61) scale(0.61,0.61)"><g transform="" style="fill: rgb(255, 255, 255);">
<g>
	<path d="M100,59.375V0H0v59.375L50,100L100,59.375z"/>
</g>
</g></g><g transform="translate(732,61) scale(0.61,0.61)"><g transform="" style="fill: rgb(255, 255, 255);">
<g>
	<path d="M100,40.625V100H0V40.625L50,0L100,40.625z"/>
</g>
</g></g><g transform="translate(854,61) scale(0.61,0.61)"><g transform="" style="fill: rgb(255, 255, 255);">
<g>
	<path d="M100,40.625V100H0V40.625L50,0L100,40.625z"/>
</g>
</g></g><g transform="translate(976,61) scale(0.61,0.61)"><g transform="" style="fill: rgb(255, 255, 255);">
<rect width="100" height="100"/>
</g></g><g transform="translate(1037,61) scale(0.61,0.61)"><g transform="" style="fill: rgb(255, 255, 255);">
<g>
	<path d="M59.375,0H0v100h59.375L100,50L59.375,0z"/>
</g>
</g></g><g transform="translate(1281,61) scale(0.61,0.61)"><g transform="" style="fill: rgb(255, 255, 255);">
<g>
	<path d="M100,59.375V0H0v59.375L50,100L100,59.375z"/>
</g>
</g></g><g transform="translate(1403,61) scale(0.61,0.61)"><g transform="" style="fill: rgb(255, 255, 255);">
<g>
	<path d="M100,0H0v65.625c0,9.506,3.353,17.611,10.059,24.316S24.87,100,34.375,100H100V0z"/>
</g>
</g></g><g transform="translate(1464,61) scale(0.61,0.61)"><g transform="" style="fill: rgb(255, 255, 255);">
<g>
	<path d="M100,34.375c0-9.505-3.354-17.611-10.059-24.316S75.131,0,65.625,0H0v100h100V34.375z"/>
</g>
</g></g><g transform="translate(610,122) scale(0.61,0.61)"><g transform="" style="fill: rgb(255, 255, 255);">
<g>
	<path d="M100,65.625c0,9.506-3.354,17.611-10.059,24.316S75.131,100,65.625,100h-31.25c-9.505,0-17.611-3.354-24.316-10.059
		S0,75.131,0,65.625v-31.25c0-9.505,3.353-17.611,10.059-24.316S24.87,0,34.375,0h31.25c9.506,0,17.611,3.353,24.316,10.059
		S100,24.87,100,34.375V65.625z"/>
</g>
</g></g><g transform="translate(732,122) scale(0.61,0.61)"><g transform="" style="fill: rgb(255, 255, 255);">
<rect width="100" height="100"/>
</g></g><g transform="translate(793,122) scale(0.61,0.61)"><g transform="" style="fill: rgb(255, 255, 255);">
<rect width="100" height="100"/>
</g></g><g transform="translate(854,122) scale(0.61,0.61)"><g transform="" style="fill: rgb(255, 255, 255);">
<g>
	<path d="M100,0H0v100h65.625c9.506,0,17.611-3.354,24.316-10.059S100,75.131,100,65.625V0z"/>
</g>
</g></g><g transform="translate(976,122) scale(0.61,0.61)"><g transform="" style="fill: rgb(255, 255, 255);">
<g>
	<path d="M100,59.375V0H0v59.375L50,100L100,59.375z"/>
</g>
</g></g><g transform="translate(1098,122) scale(0.61,0.61)"><g transform="" style="fill: rgb(255, 255, 255);">
<g>
	<path d="M100,34.375V0H34.375C24.87,0,16.764,3.353,10.059,10.059S0,24.87,0,34.375V100h100V34.375z"/>
</g>
</g></g><g transform="translate(1159,122) scale(0.61,0.61)"><g transform="" style="fill: rgb(255, 255, 255);">
<g>
	<path d="M100,34.375c0-9.505-3.354-17.611-10.059-24.316S75.131,0,65.625,0H0v100h100V34.375z"/>
</g>
</g></g><g transform="translate(1464,122) scale(0.61,0.61)"><g transform="" style="fill: rgb(255, 255, 255);">
<g>
	<path d="M100,59.375V0H0v59.375L50,100L100,59.375z"/>
</g>
</g></g><g transform="translate(488,183) scale(0.61,0.61)"><g transform="" style="fill: rgb(255, 255, 255);">
<g>
	<path d="M40.625,0H100v100H40.625L0,50L40.625,0z"/>
</g>
</g></g><g transform="translate(549,183) scale(0.61,0.61)"><g transform="" style="fill: rgb(255, 255, 255);">
<g>
	<path d="M100,34.375c0-9.505-3.354-17.611-10.059-24.316S75.131,0,65.625,0H0v100h100V34.375z"/>
</g>
</g></g><g transform="translate(671,183) scale(0.61,0.61)"><g transform="" style="fill: rgb(255, 255, 255);">
<g>
	<path d="M40.625,0H100v100H40.625L0,50L40.625,0z"/>
</g>
</g></g><g transform="translate(732,183) scale(0.61,0.61)"><g transform="" style="fill: rgb(255, 255, 255);">
<rect width="100" height="100"/>
</g></g><g transform="translate(915,183) scale(0.61,0.61)"><g transform="" style="fill: rgb(255, 255, 255);">
<g>
	<path d="M100,65.625c0,9.506-3.354,17.611-10.059,24.316S75.131,100,65.625,100h-31.25c-9.505,0-17.611-3.354-24.316-10.059
		S0,75.131,0,65.625v-31.25c0-9.505,3.353-17.611,10.059-24.316S24.87,0,34.375,0h31.25c9.506,0,17.611,3.353,24.316,10.059
		S100,24.87,100,34.375V65.625z"/>
</g>
</g></g><g transform="translate(1098,183) scale(0.61,0.61)"><g transform="" style="fill: rgb(255, 255, 255);">
<rect width="100" height="100"/>
</g></g><g transform="translate(1159,183) scale(0.61,0.61)"><g transform="" style="fill: rgb(255, 255, 255);">
<g>
	<path d="M100,0H0v100h65.625c9.506,0,17.611-3.354,24.316-10.059S100,75.131,100,65.625V0z"/>
</g>
</g></g><g transform="translate(1342,183) scale(0.61,0.61)"><g transform="" style="fill: rgb(255, 255, 255);">
<g>
	<path d="M100,40.625V100H0V40.625L50,0L100,40.625z"/>
</g>
</g></g><g transform="translate(549,244) scale(0.61,0.61)"><g transform="" style="fill: rgb(255, 255, 255);">
<rect width="100" height="100"/>
</g></g><g transform="translate(610,244) scale(0.61,0.61)"><g transform="" style="fill: rgb(255, 255, 255);">
<g>
	<path d="M59.375,0H0v100h59.375L100,50L59.375,0z"/>
</g>
</g></g><g transform="translate(732,244) scale(0.61,0.61)"><g transform="" style="fill: rgb(255, 255, 255);">
<rect width="100" height="100"/>
</g></g><g transform="translate(793,244) scale(0.61,0.61)"><g transform="" style="fill: rgb(255, 255, 255);">
<g>
	<path d="M100,34.375c0-9.505-3.354-17.611-10.059-24.316S75.131,0,65.625,0H0v100h100V34.375z"/>
</g>
</g></g><g transform="translate(976,244) scale(0.61,0.61)"><g transform="" style="fill: rgb(255, 255, 255);">
<g>
	<path d="M100,40.625V100H0V40.625L50,0L100,40.625z"/>
</g>
</g></g><g transform="translate(1098,244) scale(0.61,0.61)"><g transform="" style="fill: rgb(255, 255, 255);">
<rect width="100" height="100"/>
</g></g><g transform="translate(1342,244) scale(0.61,0.61)"><g transform="" style="fill: rgb(255, 255, 255);">
<rect width="100" height="100"/>
</g></g><g transform="translate(1464,244) scale(0.61,0.61)"><g transform="" style="fill: rgb(255, 255, 255);">
<g>
	<path d="M100,40.625V100H0V40.625L50,0L100,40.625z"/>
</g>
</g></g><g transform="translate(549,305) scale(0.61,0.61)"><g transform="" style="fill: rgb(255, 255, 255);">
<g>
	<path d="M100,59.375V0H0v59.375L50,100L100,59.375z"/>
</g>
</g></g><g transform="translate(671,305) scale(0.61,0.61)"><g transform="" style="fill: rgb(255, 255, 255);">
<g>
	<path d="M40.625,0H100v100H40.625L0,50L40.625,0z"/>
</g>
</g></g><g transform="translate(732,305) scale(0.61,0.61)"><g transform="" style="fill: rgb(255, 255, 255);">
<rect width="100" height="100"/>
</g></g><g transform="translate(793,305) scale(0.61,0.61)"><g transform="" style="fill: rgb(255, 255, 255);">
<rect width="100" height="100"/>
</g></g><g transform="translate(854,305) scale(0.61,0.61)"><g transform="" style="fill: rgb(255, 255, 255);">
<rect width="100" height="100"/>
</g></g><g transform="translate(915,305) scale(0.61,0.61)"><g transform="" style="fill: rgb(255, 255, 255);">
<rect width="100" height="100"/>
</g></g><g transform="translate(976,305) scale(0.61,0.61)"><g transform="" style="fill: rgb(255, 255, 255);">
<rect width="100" height="100"/>
</g></g><g transform="translate(1037,305) scale(0.61,0.61)"><g transform="" style="fill: rgb(255, 255, 255);">
<rect width="100" height="100"/>
</g></g><g transform="translate(1098,305) scale(0.61,0.61)"><g transform="" style="fill: rgb(255, 255, 255);">
<rect width="100" height="100"/>
</g></g><g transform="translate(1281,305) scale(0.61,0.61)"><g transform="" style="fill: rgb(255, 255, 255);">
<g>
	<path d="M40.625,0H100v100H40.625L0,50L40.625,0z"/>
</g>
</g></g><g transform="translate(1342,305) scale(0.61,0.61)"><g transform="" style="fill: rgb(255, 255, 255);">
<rect width="100" height="100"/>
</g></g><g transform="translate(1464,305) scale(0.61,0.61)"><g transform="" style="fill: rgb(255, 255, 255);">
<rect width="100" height="100"/>
</g></g><g transform="translate(488,366) scale(0.61,0.61)"><g transform="" style="fill: rgb(255, 255, 255);">
<g>
	<path d="M100,40.625V100H0V40.625L50,0L100,40.625z"/>
</g>
</g></g><g transform="translate(610,366) scale(0.61,0.61)"><g transform="" style="fill: rgb(255, 255, 255);">
<g>
	<path d="M100,40.625V100H0V40.625L50,0L100,40.625z"/>
</g>
</g></g><g transform="translate(732,366) scale(0.61,0.61)"><g transform="" style="fill: rgb(255, 255, 255);">
<rect width="100" height="100"/>
</g></g><g transform="translate(854,366) scale(0.61,0.61)"><g transform="" style="fill: rgb(255, 255, 255);">
<rect width="100" height="100"/>
</g></g><g transform="translate(976,366) scale(0.61,0.61)"><g transform="" style="fill: rgb(255, 255, 255);">
<rect width="100" height="100"/>
</g></g><g transform="translate(1098,366) scale(0.61,0.61)"><g transform="" style="fill: rgb(255, 255, 255);">
<g>
	<path d="M100,59.375V0H0v59.375L50,100L100,59.375z"/>
</g>
</g></g><g transform="translate(1220,366) scale(0.61,0.61)"><g transform="" style="fill: rgb(255, 255, 255);">
<g>
	<path d="M100,65.625c0,9.506-3.354,17.611-10.059,24.316S75.131,100,65.625,100h-31.25c-9.505,0-17.611-3.354-24.316-10.059
		S0,75.131,0,65.625v-31.25c0-9.505,3.353-17.611,10.059-24.316S24.87,0,34.375,0h31.25c9.506,0,17.611,3.353,24.316,10.059
		S100,24.87,100,34.375V65.625z"/>
</g>
</g></g><g transform="translate(1342,366) scale(0.61,0.61)"><g transform="" style="fill: rgb(255, 255, 255);">
<g>
	<path d="M100,59.375V0H0v59.375L50,100L100,59.375z"/>
</g>
</g></g><g transform="translate(1464,366) scale(0.61,0.61)"><g transform="" style="fill: rgb(255, 255, 255);">
<g>
	<path d="M100,59.375V0H0v59.375L50,100L100,59.375z"/>
</g>
</g></g><g transform="translate(488,427) scale(0.61,0.61)"><g transform="" style="fill: rgb(255, 255, 255);">
<g>
	<path d="M100,0H0v65.625c0,9.506,3.353,17.611,10.059,24.316S24.87,100,34.375,100H100V0z"/>
</g>
</g></g><g transform="translate(549,427) scale(0.61,0.61)"><g transform="" style="fill: rgb(255, 255, 255);">
<rect width="100" height="100"/>
</g></g><g transform="translate(610,427) scale(0.61,0.61)"><g transform="" style="fill: rgb(255, 255, 255);">
<g>
	<path d="M100,0H0v100h65.625c9.506,0,17.611-3.354,24.316-10.059S100,75.131,100,65.625V0z"/>
</g>
</g></g><g transform="translate(732,427) scale(0.61,0.61)"><g transform="" style="fill: rgb(255, 255, 255);">
<rect width="100" height="100"/>
</g></g><g transform="translate(854,427) scale(0.61,0.61)"><g transform="" style="fill: rgb(255, 255, 255);">
<rect width="100" height="100"/>
</g></g><g transform="translate(915,427) scale(0.61,0.61)"><g transform="" style="fill: rgb(255, 255, 255);">
<rect width="100" height="100"/>
</g></g><g transform="translate(976,427) scale(0.61,0.61)"><g transform="" style="fill: rgb(255, 255, 255);">
<rect width="100" height="100"/>
</g></g><g transform="translate(1037,427) scale(0.61,0.61)"><g transform="" style="fill: rgb(255, 255, 255);">
<g>
	<path d="M100,34.375c0-9.505-3.354-17.611-10.059-24.316S75.131,0,65.625,0H0v100h100V34.375z"/>
</g>
</g></g><g transform="translate(1159,427) scale(0.61,0.61)"><g transform="" style="fill: rgb(255, 255, 255);">
<g>
	<path d="M100,65.625c0,9.506-3.354,17.611-10.059,24.316S75.131,100,65.625,100h-31.25c-9.505,0-17.611-3.354-24.316-10.059
		S0,75.131,0,65.625v-31.25c0-9.505,3.353-17.611,10.059-24.316S24.87,0,34.375,0h31.25c9.506,0,17.611,3.353,24.316,10.059
		S100,24.87,100,34.375V65.625z"/>
</g>
</g></g><g transform="translate(1403,427) scale(0.61,0.61)"><g transform="" style="fill: rgb(255, 255, 255);">
<g>
	<path d="M100,40.625V100H0V40.625L50,0L100,40.625z"/>
</g>
</g></g><g transform="translate(0,488) scale(0.61,0.61)"><g transform="" style="fill: rgb(255, 255, 255);">
<g>
	<path d="M100,40.625V100H0V40.625L50,0L100,40.625z"/>
</g>
</g></g><g transform="translate(122,488) scale(0.61,0.61)"><g transform="" style="fill: rgb(255, 255, 255);">
<g>
	<path d="M100,34.375V0H34.375C24.87,0,16.764,3.353,10.059,10.059S0,24.87,0,34.375V100h100V34.375z"/>
</g>
</g></g><g transform="translate(183,488) scale(0.61,0.61)"><g transform="" style="fill: rgb(255, 255, 255);">
<g>
	<path d="M59.375,0H0v100h59.375L100,50L59.375,0z"/>
</g>
</g></g><g transform="translate(305,488) scale(0.61,0.61)"><g transform="" style="fill: rgb(255, 255, 255);">
<g>
	<path d="M40.625,0H100v100H40.625L0,50L40.625,0z"/>
</g>
</g></g><g transform="translate(366,488) scale(0.61,0.61)"><g transform="" style="fill: rgb(255, 255, 255);">
<rect width="100" height="100"/>
</g></g><g transform="translate(427,488) scale(0.61,0.61)"><g transform="" style="fill: rgb(255, 255, 255);">
<g>
	<path d="M100,34.375c0-9.505-3.354-17.611-10.059-24.316S75.131,0,65.625,0H0v100h100V34.375z"/>
</g>
</g></g><g transform="translate(732,488) scale(0.61,0.61)"><g transform="" style="fill: rgb(255, 255, 255);">
<rect width="100" height="100"/>
</g></g><g transform="translate(854,488) scale(0.61,0.61)"><g transform="" style="fill: rgb(255, 255, 255);">
<g>
	<path d="M100,0H0v65.625c0,9.506,3.353,17.611,10.059,24.316S24.87,100,34.375,100H100V0z"/>
</g>
</g></g><g transform="translate(915,488) scale(0.61,0.61)"><g transform="" style="fill: rgb(255, 255, 255);">
<rect width="100" height="100"/>
</g></g><g transform="translate(976,488) scale(0.61,0.61)"><g transform="" style="fill: rgb(255, 255, 255);">
<rect width="100" height="100"/>
</g></g><g transform="translate(1037,488) scale(0.61,0.61)"><g transform="" style="fill: rgb(255, 255, 255);">
<rect width="100" height="100"/>
</g></g><g transform="translate(1098,488) scale(0.61,0.61)"><g transform="" style="fill: rgb(255, 255, 255);">
<g>
	<path d="M100,34.375c0-9.505-3.354-17.611-10.059-24.316S75.131,0,65.625,0H0v100h100V34.375z"/>
</g>
</g></g><g transform="translate(1281,488) scale(0.61,0.61)"><g transform="" style="fill: rgb(255, 255, 255);">
<g>
	<path d="M100,34.375V0H34.375C24.87,0,16.764,3.353,10.059,10.059S0,24.87,0,34.375V100h100V34.375z"/>
</g>
</g></g><g transform="translate(1342,488) scale(0.61,0.61)"><g transform="" style="fill: rgb(255, 255, 255);">
<rect width="100" height="100"/>
</g></g><g transform="translate(1403,488) scale(0.61,0.61)"><g transform="" style="fill: rgb(255, 255, 255);">
<rect width="100" height="100"/>
</g></g><g transform="translate(1464,488) scale(0.61,0.61)"><g transform="" style="fill: rgb(255, 255, 255);">
<g>
	<path d="M59.375,0H0v100h59.375L100,50L59.375,0z"/>
</g>
</g></g><g transform="translate(1586,488) scale(0.61,0.61)"><g transform="" style="fill: rgb(255, 255, 255);">
<g>
	<path d="M100,40.625V100H0V40.625L50,0L100,40.625z"/>
</g>
</g></g><g transform="translate(1769,488) scale(0.61,0.61)"><g transform="" style="fill: rgb(255, 255, 255);">
<g>
	<path d="M100,40.625V100H0V40.625L50,0L100,40.625z"/>
</g>
</g></g><g transform="translate(1891,488) scale(0.61,0.61)"><g transform="" style="fill: rgb(255, 255, 255);">
<g>
	<path d="M40.625,0H100v100H40.625L0,50L40.625,0z"/>
</g>
</g></g><g transform="translate(1952,488) scale(0.61,0.61)"><g transform="" style="fill: rgb(255, 255, 255);">
<g>
	<path d="M100,34.375c0-9.505-3.354-17.611-10.059-24.316S75.131,0,65.625,0H0v100h100V34.375z"/>
</g>
</g></g><g transform="translate(0,549) scale(0.61,0.61)"><g transform="" style="fill: rgb(255, 255, 255);">
<g>
	<path d="M100,0H0v65.625c0,9.506,3.353,17.611,10.059,24.316S24.87,100,34.375,100H100V0z"/>
</g>
</g></g><g transform="translate(61,549) scale(0.61,0.61)"><g transform="" style="fill: rgb(255, 255, 255);">
<rect width="100" height="100"/>
</g></g><g transform="translate(122,549) scale(0.61,0.61)"><g transform="" style="fill: rgb(255, 255, 255);">
<g>
	<path d="M100,0H0v100h65.625c9.506,0,17.611-3.354,24.316-10.059S100,75.131,100,65.625V0z"/>
</g>
</g></g><g transform="translate(244,549) scale(0.61,0.61)"><g transform="" style="fill: rgb(255, 255, 255);">
<g>
	<path d="M100,65.625c0,9.506-3.354,17.611-10.059,24.316S75.131,100,65.625,100h-31.25c-9.505,0-17.611-3.354-24.316-10.059
		S0,75.131,0,65.625v-31.25c0-9.505,3.353-17.611,10.059-24.316S24.87,0,34.375,0h31.25c9.506,0,17.611,3.353,24.316,10.059
		S100,24.87,100,34.375V65.625z"/>
</g>
</g></g><g transform="translate(427,549) scale(0.61,0.61)"><g transform="" style="fill: rgb(255, 255, 255);">
<rect width="100" height="100"/>
</g></g><g transform="translate(732,549) scale(0.61,0.61)"><g transform="" style="fill: rgb(255, 255, 255);">
<rect width="100" height="100"/>
</g></g><g transform="translate(793,549) scale(0.61,0.61)"><g transform="" style="fill: rgb(255, 255, 255);">
<g>
	<path d="M100,34.375c0-9.505-3.354-17.611-10.059-24.316S75.131,0,65.625,0H0v100h100V34.375z"/>
</g>
</g></g><g transform="translate(976,549) scale(0.61,0.61)"><g transform="" style="fill: rgb(255, 255, 255);">
<g>
	<path d="M100,0H0v65.625c0,9.506,3.353,17.611,10.059,24.316S24.87,100,34.375,100H100V0z"/>
</g>
</g></g><g transform="translate(1037,549) scale(0.61,0.61)"><g transform="" style="fill: rgb(255, 255, 255);">
<rect width="100" height="100"/>
</g></g><g transform="translate(1098,549) scale(0.61,0.61)"><g transform="" style="fill: rgb(255, 255, 255);">
<rect width="100" height="100"/>
</g></g><g transform="translate(1159,549) scale(0.61,0.61)"><g transform="" style="fill: rgb(255, 255, 255);">
<rect width="100" height="100"/>
</g></g><g transform="translate(1220,549) scale(0.61,0.61)"><g transform="" style="fill: rgb(255, 255, 255);">
<rect width="100" height="100"/>
</g></g><g transform="translate(1281,549) scale(0.61,0.61)"><g transform="" style="fill: rgb(255, 255, 255);">
<g>
	<path d="M100,0H0v100h65.625c9.506,0,17.611-3.354,24.316-10.059S100,75.131,100,65.625V0z"/>
</g>
</g></g><g transform="translate(1403,549) scale(0.61,0.61)"><g transform="" style="fill: rgb(255, 255, 255);">
<rect width="100" height="100"/>
</g></g><g transform="translate(1586,549) scale(0.61,0.61)"><g transform="" style="fill: rgb(255, 255, 255);">
<rect width="100" height="100"/>
</g></g><g transform="translate(1647,549) scale(0.61,0.61)"><g transform="" style="fill: rgb(255, 255, 255);">
<g>
	<path d="M100,34.375c0-9.505-3.354-17.611-10.059-24.316S75.131,0,65.625,0H0v100h100V34.375z"/>
</g>
</g></g><g transform="translate(1769,549) scale(0.61,0.61)"><g transform="" style="fill: rgb(255, 255, 255);">
<rect width="100" height="100"/>
</g></g><g transform="translate(1830,549) scale(0.61,0.61)"><g transform="" style="fill: rgb(255, 255, 255);">
<g>
	<path d="M59.375,0H0v100h59.375L100,50L59.375,0z"/>
</g>
</g></g><g transform="translate(1952,549) scale(0.61,0.61)"><g transform="" style="fill: rgb(255, 255, 255);">
<rect width="100" height="100"/>
</g></g><g transform="translate(61,610) scale(0.61,0.61)"><g transform="" style="fill: rgb(255, 255, 255);">
<g>
	<path d="M100,59.375V0H0v59.375L50,100L100,59.375z"/>
</g>
</g></g><g transform="translate(183,610) scale(0.61,0.61)"><g transform="" style="fill: rgb(255, 255, 255);">
<g>
	<path d="M100,40.625V100H0V40.625L50,0L100,40.625z"/>
</g>
</g></g><g transform="translate(366,610) scale(0.61,0.61)"><g transform="" style="fill: rgb(255, 255, 255);">
<g>
	<path d="M40.625,0H100v100H40.625L0,50L40.625,0z"/>
</g>
</g></g><g transform="translate(427,610) scale(0.61,0.61)"><g transform="" style="fill: rgb(255, 255, 255);">
<g>
	<path d="M100,0H0v100h65.625c9.506,0,17.611-3.354,24.316-10.059S100,75.131,100,65.625V0z"/>
</g>
</g></g><g transform="translate(549,610) scale(0.61,0.61)"><g transform="" style="fill: rgb(255, 255, 255);">
<g>
	<path d="M100,65.625c0,9.506-3.354,17.611-10.059,24.316S75.131,100,65.625,100h-31.25c-9.505,0-17.611-3.354-24.316-10.059
		S0,75.131,0,65.625v-31.25c0-9.505,3.353-17.611,10.059-24.316S24.87,0,34.375,0h31.25c9.506,0,17.611,3.353,24.316,10.059
		S100,24.87,100,34.375V65.625z"/>
</g>
</g></g><g transform="translate(671,610) scale(0.61,0.61)"><g transform="" style="fill: rgb(255, 255, 255);">
<g>
	<path d="M100,34.375V0H34.375C24.87,0,16.764,3.353,10.059,10.059S0,24.87,0,34.375V100h100V34.375z"/>
</g>
</g></g><g transform="translate(732,610) scale(0.61,0.61)"><g transform="" style="fill: rgb(255, 255, 255);">
<rect width="100" height="100"/>
</g></g><g transform="translate(793,610) scale(0.61,0.61)"><g transform="" style="fill: rgb(255, 255, 255);">
<g>
	<path d="M100,0H0v100h65.625c9.506,0,17.611-3.354,24.316-10.059S100,75.131,100,65.625V0z"/>
</g>
</g></g><g transform="translate(1098,610) scale(0.61,0.61)"><g transform="" style="fill: rgb(255, 255, 255);">
<g>
	<path d="M100,59.375V0H0v59.375L50,100L100,59.375z"/>
</g>
</g></g><g transform="translate(1220,610) scale(0.61,0.61)"><g transform="" style="fill: rgb(255, 255, 255);">
<rect width="100" height="100"/>
</g></g><g transform="translate(1342,610) scale(0.61,0.61)"><g transform="" style="fill: rgb(255, 255, 255);">
<g>
	<path d="M100,34.375V0H34.375C24.87,0,16.764,3.353,10.059,10.059S0,24.87,0,34.375V100h100V34.375z"/>
</g>
</g></g><g transform="translate(1403,610) scale(0.61,0.61)"><g transform="" style="fill: rgb(255, 255, 255);">
<g>
	<path d="M100,0H0v100h65.625c9.506,0,17.611-3.354,24.316-10.059S100,75.131,100,65.625V0z"/>
</g>
</g></g><g transform="translate(1525,610) scale(0.61,0.61)"><g transform="" style="fill: rgb(255, 255, 255);">
<g>
	<path d="M40.625,0H100v100H40.625L0,50L40.625,0z"/>
</g>
</g></g><g transform="translate(1586,610) scale(0.61,0.61)"><g transform="" style="fill: rgb(255, 255, 255);">
<rect width="100" height="100"/>
</g></g><g transform="translate(1647,610) scale(0.61,0.61)"><g transform="" style="fill: rgb(255, 255, 255);">
<rect width="100" height="100"/>
</g></g><g transform="translate(1708,610) scale(0.61,0.61)"><g transform="" style="fill: rgb(255, 255, 255);">
<rect width="100" height="100"/>
</g></g><g transform="translate(1769,610) scale(0.61,0.61)"><g transform="" style="fill: rgb(255, 255, 255);">
<rect width="100" height="100"/>
</g></g><g transform="translate(1891,610) scale(0.61,0.61)"><g transform="" style="fill: rgb(255, 255, 255);">
<g>
	<path d="M100,34.375V0H34.375C24.87,0,16.764,3.353,10.059,10.059S0,24.87,0,34.375V100h100V34.375z"/>
</g>
</g></g><g transform="translate(1952,610) scale(0.61,0.61)"><g transform="" style="fill: rgb(255, 255, 255);">
<g>
	<path d="M100,0H0v100h65.625c9.506,0,17.611-3.354,24.316-10.059S100,75.131,100,65.625V0z"/>
</g>
</g></g><g transform="translate(0,671) scale(0.61,0.61)"><g transform="" style="fill: rgb(255, 255, 255);">
<g>
	<path d="M100,65.625c0,9.506-3.354,17.611-10.059,24.316S75.131,100,65.625,100h-31.25c-9.505,0-17.611-3.354-24.316-10.059
		S0,75.131,0,65.625v-31.25c0-9.505,3.353-17.611,10.059-24.316S24.87,0,34.375,0h31.25c9.506,0,17.611,3.353,24.316,10.059
		S100,24.87,100,34.375V65.625z"/>
</g>
</g></g><g transform="translate(183,671) scale(0.61,0.61)"><g transform="" style="fill: rgb(255, 255, 255);">
<rect width="100" height="100"/>
</g></g><g transform="translate(244,671) scale(0.61,0.61)"><g transform="" style="fill: rgb(255, 255, 255);">
<rect width="100" height="100"/>
</g></g><g transform="translate(305,671) scale(0.61,0.61)"><g transform="" style="fill: rgb(255, 255, 255);">
<g>
	<path d="M100,34.375c0-9.505-3.354-17.611-10.059-24.316S75.131,0,65.625,0H0v100h100V34.375z"/>
</g>
</g></g><g transform="translate(488,671) scale(0.61,0.61)"><g transform="" style="fill: rgb(255, 255, 255);">
<g>
	<path d="M100,40.625V100H0V40.625L50,0L100,40.625z"/>
</g>
</g></g><g transform="translate(610,671) scale(0.61,0.61)"><g transform="" style="fill: rgb(255, 255, 255);">
<g>
	<path d="M100,34.375V0H34.375C24.87,0,16.764,3.353,10.059,10.059S0,24.87,0,34.375V100h100V34.375z"/>
</g>
</g></g><g transform="translate(671,671) scale(0.61,0.61)"><g transform="" style="fill: rgb(255, 255, 255);">
<g>
	<path d="M100,0H0v100h65.625c9.506,0,17.611-3.354,24.316-10.059S100,75.131,100,65.625V0z"/>
</g>
</g></g><g transform="translate(1037,671) scale(0.61,0.61)"><g transform="" style="fill: rgb(255, 255, 255);">
<g>
	<path d="M100,65.625c0,9.506-3.354,17.611-10.059,24.316S75.131,100,65.625,100h-31.25c-9.505,0-17.611-3.354-24.316-10.059
		S0,75.131,0,65.625v-31.25c0-9.505,3.353-17.611,10.059-24.316S24.87,0,34.375,0h31.25c9.506,0,17.611,3.353,24.316,10.059
		S100,24.87,100,34.375V65.625z"/>
</g>
</g></g><g transform="translate(1220,671) scale(0.61,0.61)"><g transform="" style="fill: rgb(255, 255, 255);">
<g>
	<path d="M100,59.375V0H0v59.375L50,100L100,59.375z"/>
</g>
</g></g><g transform="translate(1342,671) scale(0.61,0.61)"><g transform="" style="fill: rgb(255, 255, 255);">
<rect width="100" height="100"/>
</g></g><g transform="translate(1586,671) scale(0.61,0.61)"><g transform="" style="fill: rgb(255, 255, 255);">
<g>
	<path d="M100,0H0v65.625c0,9.506,3.353,17.611,10.059,24.316S24.87,100,34.375,100H100V0z"/>
</g>
</g></g><g transform="translate(1647,671) scale(0.61,0.61)"><g transform="" style="fill: rgb(255, 255, 255);">
<rect width="100" height="100"/>
</g></g><g transform="translate(1769,671) scale(0.61,0.61)"><g transform="" style="fill: rgb(255, 255, 255);">
<rect width="100" height="100"/>
</g></g><g transform="translate(1891,671) scale(0.61,0.61)"><g transform="" style="fill: rgb(255, 255, 255);">
<rect width="100" height="100"/>
</g></g><g transform="translate(61,732) scale(0.61,0.61)"><g transform="" style="fill: rgb(255, 255, 255);">
<g>
	<path d="M100,34.375V0H34.375C24.87,0,16.764,3.353,10.059,10.059S0,24.87,0,34.375V100h100V34.375z"/>
</g>
</g></g><g transform="translate(122,732) scale(0.61,0.61)"><g transform="" style="fill: rgb(255, 255, 255);">
<rect width="100" height="100"/>
</g></g><g transform="translate(183,732) scale(0.61,0.61)"><g transform="" style="fill: rgb(255, 255, 255);">
<rect width="100" height="100"/>
</g></g><g transform="translate(244,732) scale(0.61,0.61)"><g transform="" style="fill: rgb(255, 255, 255);">
<rect width="100" height="100"/>
</g></g><g transform="translate(305,732) scale(0.61,0.61)"><g transform="" style="fill: rgb(255, 255, 255);">
<rect width="100" height="100"/>
</g></g><g transform="translate(366,732) scale(0.61,0.61)"><g transform="" style="fill: rgb(255, 255, 255);">
<g>
	<path d="M59.375,0H0v100h59.375L100,50L59.375,0z"/>
</g>
</g></g><g transform="translate(488,732) scale(0.61,0.61)"><g transform="" style="fill: rgb(255, 255, 255);">
<g>
	<path d="M100,59.375V0H0v59.375L50,100L100,59.375z"/>
</g>
</g></g><g transform="translate(610,732) scale(0.61,0.61)"><g transform="" style="fill: rgb(255, 255, 255);">
<g>
	<path d="M100,59.375V0H0v59.375L50,100L100,59.375z"/>
</g>
</g></g><g transform="translate(732,732) scale(0.61,0.61)"><g transform="" style="fill: rgb(255, 255, 255);">
<g>
	<path d="M100,65.625c0,9.506-3.354,17.611-10.059,24.316S75.131,100,65.625,100h-31.25c-9.505,0-17.611-3.354-24.316-10.059
		S0,75.131,0,65.625v-31.25c0-9.505,3.353-17.611,10.059-24.316S24.87,0,34.375,0h31.25c9.506,0,17.611,3.353,24.316,10.059
		S100,24.87,100,34.375V65.625z"/>
</g>
</g></g><g transform="translate(854,732) scale(0.61,0.61)"><g transform="" style="fill: rgb(255, 255, 255);">
<g>
	<path d="M100,34.375V0H34.375C24.87,0,16.764,3.353,10.059,10.059S0,24.87,0,34.375V100h100V34.375z"/>
</g>
</g></g><g transform="translate(915,732) scale(0.61,0.61)"><g transform="" style="fill: rgb(255, 255, 255);">
<rect width="100" height="100"/>
</g></g><g transform="translate(976,732) scale(0.61,0.61)"><g transform="" style="fill: rgb(255, 255, 255);">
<g>
	<path d="M59.375,0H0v100h59.375L100,50L59.375,0z"/>
</g>
</g></g><g transform="translate(1159,732) scale(0.61,0.61)"><g transform="" style="fill: rgb(255, 255, 255);">
<g>
	<path d="M100,65.625c0,9.506-3.354,17.611-10.059,24.316S75.131,100,65.625,100h-31.25c-9.505,0-17.611-3.354-24.316-10.059
		S0,75.131,0,65.625v-31.25c0-9.505,3.353-17.611,10.059-24.316S24.87,0,34.375,0h31.25c9.506,0,17.611,3.353,24.316,10.059
		S100,24.87,100,34.375V65.625z"/>
</g>
</g></g><g transform="translate(1342,732) scale(0.61,0.61)"><g transform="" style="fill: rgb(255, 255, 255);">
<g>
	<path d="M100,0H0v65.625c0,9.506,3.353,17.611,10.059,24.316S24.87,100,34.375,100H100V0z"/>
</g>
</g></g><g transform="translate(1403,732) scale(0.61,0.61)"><g transform="" style="fill: rgb(255, 255, 255);">
<g>
	<path d="M59.375,0H0v100h59.375L100,50L59.375,0z"/>
</g>
</g></g><g transform="translate(1647,732) scale(0.61,0.61)"><g transform="" style="fill: rgb(255, 255, 255);">
<rect width="100" height="100"/>
</g></g><g transform="translate(1708,732) scale(0.61,0.61)"><g transform="" style="fill: rgb(255, 255, 255);">
<rect width="100" height="100"/>
</g></g><g transform="translate(1769,732) scale(0.61,0.61)"><g transform="" style="fill: rgb(255, 255, 255);">
<g>
	<path d="M100,0H0v100h65.625c9.506,0,17.611-3.354,24.316-10.059S100,75.131,100,65.625V0z"/>
</g>
</g></g><g transform="translate(1891,732) scale(0.61,0.61)"><g transform="" style="fill: rgb(255, 255, 255);">
<rect width="100" height="100"/>
</g></g><g transform="translate(0,793) scale(0.61,0.61)"><g transform="" style="fill: rgb(255, 255, 255);">
<g>
	<path d="M100,34.375V0H34.375C24.87,0,16.764,3.353,10.059,10.059S0,24.87,0,34.375V100h100V34.375z"/>
</g>
</g></g><g transform="translate(61,793) scale(0.61,0.61)"><g transform="" style="fill: rgb(255, 255, 255);">
<rect width="100" height="100"/>
</g></g><g transform="translate(122,793) scale(0.61,0.61)"><g transform="" style="fill: rgb(255, 255, 255);">
<rect width="100" height="100"/>
</g></g><g transform="translate(244,793) scale(0.61,0.61)"><g transform="" style="fill: rgb(255, 255, 255);">
<rect width="100" height="100"/>
</g></g><g transform="translate(305,793) scale(0.61,0.61)"><g transform="" style="fill: rgb(255, 255, 255);">
<g>
	<path d="M100,0H0v100h65.625c9.506,0,17.611-3.354,24.316-10.059S100,75.131,100,65.625V0z"/>
</g>
</g></g><g transform="translate(549,793) scale(0.61,0.61)"><g transform="" style="fill: rgb(255, 255, 255);">
<g>
	<path d="M100,40.625V100H0V40.625L50,0L100,40.625z"/>
</g>
</g></g><g transform="translate(793,793) scale(0.61,0.61)"><g transform="" style="fill: rgb(255, 255, 255);">
<g>
	<path d="M40.625,0H100v100H40.625L0,50L40.625,0z"/>
</g>
</g></g><g transform="translate(854,793) scale(0.61,0.61)"><g transform="" style="fill: rgb(255, 255, 255);">
<g>
	<path d="M100,0H0v100h65.625c9.506,0,17.611-3.354,24.316-10.059S100,75.131,100,65.625V0z"/>
</g>
</g></g><g transform="translate(1220,793) scale(0.61,0.61)"><g transform="" style="fill: rgb(255, 255, 255);">
<g>
	<path d="M40.625,0H100v100H40.625L0,50L40.625,0z"/>
</g>
</g></g><g transform="translate(1281,793) scale(0.61,0.61)"><g transform="" style="fill: rgb(255, 255, 255);">
<g>
	<path d="M100,34.375c0-9.505-3.354-17.611-10.059-24.316S75.131,0,65.625,0H0v100h100V34.375z"/>
</g>
</g></g><g transform="translate(1464,793) scale(0.61,0.61)"><g transform="" style="fill: rgb(255, 255, 255);">
<g>
	<path d="M100,40.625V100H0V40.625L50,0L100,40.625z"/>
</g>
</g></g><g transform="translate(1647,793) scale(0.61,0.61)"><g transform="" style="fill: rgb(255, 255, 255);">
<g>
	<path d="M100,59.375V0H0v59.375L50,100L100,59.375z"/>
</g>
</g></g><g transform="translate(1891,793) scale(0.61,0.61)"><g transform="" style="fill: rgb(255, 255, 255);">
<g>
	<path d="M100,59.375V0H0v59.375L50,100L100,59.375z"/>
</g>
</g></g><g transform="translate(0,854) scale(0.61,0.61)"><g transform="" style="fill: rgb(255, 255, 255);">
<rect width="100" height="100"/>
</g></g><g transform="translate(61,854) scale(0.61,0.61)"><g transform="" style="fill: rgb(255, 255, 255);">
<rect width="100" height="100"/>
</g></g><g transform="translate(122,854) scale(0.61,0.61)"><g transform="" style="fill: rgb(255, 255, 255);">
<g>
	<path d="M100,0H0v100h65.625c9.506,0,17.611-3.354,24.316-10.059S100,75.131,100,65.625V0z"/>
</g>
</g></g><g transform="translate(244,854) scale(0.61,0.61)"><g transform="" style="fill: rgb(255, 255, 255);">
<g>
	<path d="M100,59.375V0H0v59.375L50,100L100,59.375z"/>
</g>
</g></g><g transform="translate(366,854) scale(0.61,0.61)"><g transform="" style="fill: rgb(255, 255, 255);">
<g>
	<path d="M40.625,0H100v100H40.625L0,50L40.625,0z"/>
</g>
</g></g><g transform="translate(427,854) scale(0.61,0.61)"><g transform="" style="fill: rgb(255, 255, 255);">
<g>
	<path d="M59.375,0H0v100h59.375L100,50L59.375,0z"/>
</g>
</g></g><g transform="translate(549,854) scale(0.61,0.61)"><g transform="" style="fill: rgb(255, 255, 255);">
<rect width="100" height="100"/>
</g></g><g transform="translate(610,854) scale(0.61,0.61)"><g transform="" style="fill: rgb(255, 255, 255);">
<rect width="100" height="100"/>
</g></g><g transform="translate(671,854) scale(0.61,0.61)"><g transform="" style="fill: rgb(255, 255, 255);">
<rect width="100" height="100"/>
</g></g><g transform="translate(732,854) scale(0.61,0.61)"><g transform="" style="fill: rgb(255, 255, 255);">
<g>
	<path d="M59.375,0H0v100h59.375L100,50L59.375,0z"/>
</g>
</g></g><g transform="translate(1037,854) scale(0.61,0.61)"><g transform="" style="fill: rgb(255, 255, 255);">
<g>
	<path d="M40.625,0H100v100H40.625L0,50L40.625,0z"/>
</g>
</g></g><g transform="translate(1098,854) scale(0.61,0.61)"><g transform="" style="fill: rgb(255, 255, 255);">
<rect width="100" height="100"/>
</g></g><g transform="translate(1159,854) scale(0.61,0.61)"><g transform="" style="fill: rgb(255, 255, 255);">
<g>
	<path d="M59.375,0H0v100h59.375L100,50L59.375,0z"/>
</g>
</g></g><g transform="translate(1281,854) scale(0.61,0.61)"><g transform="" style="fill: rgb(255, 255, 255);">
<rect width="100" height="100"/>
</g></g><g transform="translate(1464,854) scale(0.61,0.61)"><g transform="" style="fill: rgb(255, 255, 255);">
<g>
	<path d="M100,59.375V0H0v59.375L50,100L100,59.375z"/>
</g>
</g></g><g transform="translate(1586,854) scale(0.61,0.61)"><g transform="" style="fill: rgb(255, 255, 255);">
<g>
	<path d="M100,40.625V100H0V40.625L50,0L100,40.625z"/>
</g>
</g></g><g transform="translate(1769,854) scale(0.61,0.61)"><g transform="" style="fill: rgb(255, 255, 255);">
<g>
	<path d="M100,40.625V100H0V40.625L50,0L100,40.625z"/>
</g>
</g></g><g transform="translate(0,915) scale(0.61,0.61)"><g transform="" style="fill: rgb(255, 255, 255);">
<rect width="100" height="100"/>
</g></g><g transform="translate(183,915) scale(0.61,0.61)"><g transform="" style="fill: rgb(255, 255, 255);">
<g>
	<path d="M100,40.625V100H0V40.625L50,0L100,40.625z"/>
</g>
</g></g><g transform="translate(549,915) scale(0.61,0.61)"><g transform="" style="fill: rgb(255, 255, 255);">
<rect width="100" height="100"/>
</g></g><g transform="translate(793,915) scale(0.61,0.61)"><g transform="" style="fill: rgb(255, 255, 255);">
<g>
	<path d="M100,34.375V0H34.375C24.87,0,16.764,3.353,10.059,10.059S0,24.87,0,34.375V100h100V34.375z"/>
</g>
</g></g><g transform="translate(854,915) scale(0.61,0.61)"><g transform="" style="fill: rgb(255, 255, 255);">
<rect width="100" height="100"/>
</g></g><g transform="translate(915,915) scale(0.61,0.61)"><g transform="" style="fill: rgb(255, 255, 255);">
<g>
	<path d="M59.375,0H0v100h59.375L100,50L59.375,0z"/>
</g>
</g></g><g transform="translate(1220,915) scale(0.61,0.61)"><g transform="" style="fill: rgb(255, 255, 255);">
<g>
	<path d="M100,34.375V0H34.375C24.87,0,16.764,3.353,10.059,10.059S0,24.87,0,34.375V100h100V34.375z"/>
</g>
</g></g><g transform="translate(1281,915) scale(0.61,0.61)"><g transform="" style="fill: rgb(255, 255, 255);">
<rect width="100" height="100"/>
</g></g><g transform="translate(1525,915) scale(0.61,0.61)"><g transform="" style="fill: rgb(255, 255, 255);">
<g>
	<path d="M100,34.375V0H34.375C24.87,0,16.764,3.353,10.059,10.059S0,24.87,0,34.375V100h100V34.375z"/>
</g>
</g></g><g transform="translate(1586,915) scale(0.61,0.61)"><g transform="" style="fill: rgb(255, 255, 255);">
<rect width="100" height="100"/>
</g></g><g transform="translate(1708,915) scale(0.61,0.61)"><g transform="" style="fill: rgb(255, 255, 255);">
<g>
	<path d="M100,34.375V0H34.375C24.87,0,16.764,3.353,10.059,10.059S0,24.87,0,34.375V100h100V34.375z"/>
</g>
</g></g><g transform="translate(1769,915) scale(0.61,0.61)"><g transform="" style="fill: rgb(255, 255, 255);">
<rect width="100" height="100"/>
</g></g><g transform="translate(1830,915) scale(0.61,0.61)"><g transform="" style="fill: rgb(255, 255, 255);">
<g>
	<path d="M100,34.375c0-9.505-3.354-17.611-10.059-24.316S75.131,0,65.625,0H0v100h100V34.375z"/>
</g>
</g></g><g transform="translate(0,976) scale(0.61,0.61)"><g transform="" style="fill: rgb(255, 255, 255);">
<g>
	<path d="M100,59.375V0H0v59.375L50,100L100,59.375z"/>
</g>
</g></g><g transform="translate(183,976) scale(0.61,0.61)"><g transform="" style="fill: rgb(255, 255, 255);">
<rect width="100" height="100"/>
</g></g><g transform="translate(305,976) scale(0.61,0.61)"><g transform="" style="fill: rgb(255, 255, 255);">
<g>
	<path d="M100,34.375V0H34.375C24.87,0,16.764,3.353,10.059,10.059S0,24.87,0,34.375V100h100V34.375z"/>
</g>
</g></g><g transform="translate(366,976) scale(0.61,0.61)"><g transform="" style="fill: rgb(255, 255, 255);">
<rect width="100" height="100"/>
</g></g><g transform="translate(427,976) scale(0.61,0.61)"><g transform="" style="fill: rgb(255, 255, 255);">
<g>
	<path d="M100,34.375c0-9.505-3.354-17.611-10.059-24.316S75.131,0,65.625,0H0v100h100V34.375z"/>
</g>
</g></g><g transform="translate(549,976) scale(0.61,0.61)"><g transform="" style="fill: rgb(255, 255, 255);">
<rect width="100" height="100"/>
</g></g><g transform="translate(671,976) scale(0.61,0.61)"><g transform="" style="fill: rgb(255, 255, 255);">
<g>
	<path d="M100,65.625c0,9.506-3.354,17.611-10.059,24.316S75.131,100,65.625,100h-31.25c-9.505,0-17.611-3.354-24.316-10.059
		S0,75.131,0,65.625v-31.25c0-9.505,3.353-17.611,10.059-24.316S24.87,0,34.375,0h31.25c9.506,0,17.611,3.353,24.316,10.059
		S100,24.87,100,34.375V65.625z"/>
</g>
</g></g><g transform="translate(793,976) scale(0.61,0.61)"><g transform="" style="fill: rgb(255, 255, 255);">
<rect width="100" height="100"/>
</g></g><g transform="translate(854,976) scale(0.61,0.61)"><g transform="" style="fill: rgb(255, 255, 255);">
<g>
	<path d="M100,0H0v100h65.625c9.506,0,17.611-3.354,24.316-10.059S100,75.131,100,65.625V0z"/>
</g>
</g></g><g transform="translate(976,976) scale(0.61,0.61)"><g transform="" style="fill: rgb(255, 255, 255);">
<g>
	<path d="M40.625,0H100v100H40.625L0,50L40.625,0z"/>
</g>
</g></g><g transform="translate(1037,976) scale(0.61,0.61)"><g transform="" style="fill: rgb(255, 255, 255);">
<rect width="100" height="100"/>
</g></g><g transform="translate(1098,976) scale(0.61,0.61)"><g transform="" style="fill: rgb(255, 255, 255);">
<g>
	<path d="M59.375,0H0v100h59.375L100,50L59.375,0z"/>
</g>
</g></g><g transform="translate(1220,976) scale(0.61,0.61)"><g transform="" style="fill: rgb(255, 255, 255);">
<rect width="100" height="100"/>
</g></g><g transform="translate(1281,976) scale(0.61,0.61)"><g transform="" style="fill: rgb(255, 255, 255);">
<rect width="100" height="100"/>
</g></g><g transform="translate(1342,976) scale(0.61,0.61)"><g transform="" style="fill: rgb(255, 255, 255);">
<g>
	<path d="M100,34.375c0-9.505-3.354-17.611-10.059-24.316S75.131,0,65.625,0H0v100h100V34.375z"/>
</g>
</g></g><g transform="translate(1525,976) scale(0.61,0.61)"><g transform="" style="fill: rgb(255, 255, 255);">
<rect width="100" height="100"/>
</g></g><g transform="translate(1586,976) scale(0.61,0.61)"><g transform="" style="fill: rgb(255, 255, 255);">
<rect width="100" height="100"/>
</g></g><g transform="translate(1708,976) scale(0.61,0.61)"><g transform="" style="fill: rgb(255, 255, 255);">
<rect width="100" height="100"/>
</g></g><g transform="translate(1830,976) scale(0.61,0.61)"><g transform="" style="fill: rgb(255, 255, 255);">
<g>
	<path d="M100,59.375V0H0v59.375L50,100L100,59.375z"/>
</g>
</g></g><g transform="translate(61,1037) scale(0.61,0.61)"><g transform="" style="fill: rgb(255, 255, 255);">
<g>
	<path d="M100,65.625c0,9.506-3.354,17.611-10.059,24.316S75.131,100,65.625,100h-31.25c-9.505,0-17.611-3.354-24.316-10.059
		S0,75.131,0,65.625v-31.25c0-9.505,3.353-17.611,10.059-24.316S24.87,0,34.375,0h31.25c9.506,0,17.611,3.353,24.316,10.059
		S100,24.87,100,34.375V65.625z"/>
</g>
</g></g><g transform="translate(183,1037) scale(0.61,0.61)"><g transform="" style="fill: rgb(255, 255, 255);">
<rect width="100" height="100"/>
</g></g><g transform="translate(305,1037) scale(0.61,0.61)"><g transform="" style="fill: rgb(255, 255, 255);">
<g>
	<path d="M100,59.375V0H0v59.375L50,100L100,59.375z"/>
</g>
</g></g><g transform="translate(427,1037) scale(0.61,0.61)"><g transform="" style="fill: rgb(255, 255, 255);">
<g>
	<path d="M100,59.375V0H0v59.375L50,100L100,59.375z"/>
</g>
</g></g><g transform="translate(549,1037) scale(0.61,0.61)"><g transform="" style="fill: rgb(255, 255, 255);">
<g>
	<path d="M100,59.375V0H0v59.375L50,100L100,59.375z"/>
</g>
</g></g><g transform="translate(732,1037) scale(0.61,0.61)"><g transform="" style="fill: rgb(255, 255, 255);">
<g>
	<path d="M100,34.375V0H34.375C24.87,0,16.764,3.353,10.059,10.059S0,24.87,0,34.375V100h100V34.375z"/>
</g>
</g></g><g transform="translate(793,1037) scale(0.61,0.61)"><g transform="" style="fill: rgb(255, 255, 255);">
<g>
	<path d="M100,0H0v100h65.625c9.506,0,17.611-3.354,24.316-10.059S100,75.131,100,65.625V0z"/>
</g>
</g></g><g transform="translate(915,1037) scale(0.61,0.61)"><g transform="" style="fill: rgb(255, 255, 255);">
<g>
	<path d="M100,40.625V100H0V40.625L50,0L100,40.625z"/>
</g>
</g></g><g transform="translate(1220,1037) scale(0.61,0.61)"><g transform="" style="fill: rgb(255, 255, 255);">
<rect width="100" height="100"/>
</g></g><g transform="translate(1281,1037) scale(0.61,0.61)"><g transform="" style="fill: rgb(255, 255, 255);">
<rect width="100" height="100"/>
</g></g><g transform="translate(1342,1037) scale(0.61,0.61)"><g transform="" style="fill: rgb(255, 255, 255);">
<rect width="100" height="100"/>
</g></g><g transform="translate(1403,1037) scale(0.61,0.61)"><g transform="" style="fill: rgb(255, 255, 255);">
<rect width="100" height="100"/>
</g></g><g transform="translate(1464,1037) scale(0.61,0.61)"><g transform="" style="fill: rgb(255, 255, 255);">
<rect width="100" height="100"/>
</g></g><g transform="translate(1525,1037) scale(0.61,0.61)"><g transform="" style="fill: rgb(255, 255, 255);">
<rect width="100" height="100"/>
</g></g><g transform="translate(1586,1037) scale(0.61,0.61)"><g transform="" style="fill: rgb(255, 255, 255);">
<rect width="100" height="100"/>
</g></g><g transform="translate(1708,1037) scale(0.61,0.61)"><g transform="" style="fill: rgb(255, 255, 255);">
<rect width="100" height="100"/>
</g></g><g transform="translate(1769,1037) scale(0.61,0.61)"><g transform="" style="fill: rgb(255, 255, 255);">
<g>
	<path d="M59.375,0H0v100h59.375L100,50L59.375,0z"/>
</g>
</g></g><g transform="translate(1952,1037) scale(0.61,0.61)"><g transform="" style="fill: rgb(255, 255, 255);">
<g>
	<path d="M100,65.625c0,9.506-3.354,17.611-10.059,24.316S75.131,100,65.625,100h-31.25c-9.505,0-17.611-3.354-24.316-10.059
		S0,75.131,0,65.625v-31.25c0-9.505,3.353-17.611,10.059-24.316S24.87,0,34.375,0h31.25c9.506,0,17.611,3.353,24.316,10.059
		S100,24.87,100,34.375V65.625z"/>
</g>
</g></g><g transform="translate(122,1098) scale(0.61,0.61)"><g transform="" style="fill: rgb(255, 255, 255);">
<g>
	<path d="M40.625,0H100v100H40.625L0,50L40.625,0z"/>
</g>
</g></g><g transform="translate(183,1098) scale(0.61,0.61)"><g transform="" style="fill: rgb(255, 255, 255);">
<rect width="100" height="100"/>
</g></g><g transform="translate(244,1098) scale(0.61,0.61)"><g transform="" style="fill: rgb(255, 255, 255);">
<g>
	<path d="M59.375,0H0v100h59.375L100,50L59.375,0z"/>
</g>
</g></g><g transform="translate(366,1098) scale(0.61,0.61)"><g transform="" style="fill: rgb(255, 255, 255);">
<g>
	<path d="M100,65.625c0,9.506-3.354,17.611-10.059,24.316S75.131,100,65.625,100h-31.25c-9.505,0-17.611-3.354-24.316-10.059
		S0,75.131,0,65.625v-31.25c0-9.505,3.353-17.611,10.059-24.316S24.87,0,34.375,0h31.25c9.506,0,17.611,3.353,24.316,10.059
		S100,24.87,100,34.375V65.625z"/>
</g>
</g></g><g transform="translate(488,1098) scale(0.61,0.61)"><g transform="" style="fill: rgb(255, 255, 255);">
<g>
	<path d="M100,65.625c0,9.506-3.354,17.611-10.059,24.316S75.131,100,65.625,100h-31.25c-9.505,0-17.611-3.354-24.316-10.059
		S0,75.131,0,65.625v-31.25c0-9.505,3.353-17.611,10.059-24.316S24.87,0,34.375,0h31.25c9.506,0,17.611,3.353,24.316,10.059
		S100,24.87,100,34.375V65.625z"/>
</g>
</g></g><g transform="translate(732,1098) scale(0.61,0.61)"><g transform="" style="fill: rgb(255, 255, 255);">
<rect width="100" height="100"/>
</g></g><g transform="translate(854,1098) scale(0.61,0.61)"><g transform="" style="fill: rgb(255, 255, 255);">
<g>
	<path d="M40.625,0H100v100H40.625L0,50L40.625,0z"/>
</g>
</g></g><g transform="translate(915,1098) scale(0.61,0.61)"><g transform="" style="fill: rgb(255, 255, 255);">
<rect width="100" height="100"/>
</g></g><g transform="translate(976,1098) scale(0.61,0.61)"><g transform="" style="fill: rgb(255, 255, 255);">
<g>
	<path d="M100,34.375c0-9.505-3.354-17.611-10.059-24.316S75.131,0,65.625,0H0v100h100V34.375z"/>
</g>
</g></g><g transform="translate(1098,1098) scale(0.61,0.61)"><g transform="" style="fill: rgb(255, 255, 255);">
<g>
	<path d="M100,40.625V100H0V40.625L50,0L100,40.625z"/>
</g>
</g></g><g transform="translate(1220,1098) scale(0.61,0.61)"><g transform="" style="fill: rgb(255, 255, 255);">
<g>
	<path d="M100,0H0v65.625c0,9.506,3.353,17.611,10.059,24.316S24.87,100,34.375,100H100V0z"/>
</g>
</g></g><g transform="translate(1281,1098) scale(0.61,0.61)"><g transform="" style="fill: rgb(255, 255, 255);">
<g>
	<path d="M100,0H0v100h65.625c9.506,0,17.611-3.354,24.316-10.059S100,75.131,100,65.625V0z"/>
</g>
</g></g><g transform="translate(1464,1098) scale(0.61,0.61)"><g transform="" style="fill: rgb(255, 255, 255);">
<rect width="100" height="100"/>
</g></g><g transform="translate(1525,1098) scale(0.61,0.61)"><g transform="" style="fill: rgb(255, 255, 255);">
<rect width="100" height="100"/>
</g></g><g transform="translate(1586,1098) scale(0.61,0.61)"><g transform="" style="fill: rgb(255, 255, 255);">
<rect width="100" height="100"/>
</g></g><g transform="translate(1647,1098) scale(0.61,0.61)"><g transform="" style="fill: rgb(255, 255, 255);">
<rect width="100" height="100"/>
</g></g><g transform="translate(1708,1098) scale(0.61,0.61)"><g transform="" style="fill: rgb(255, 255, 255);">
<rect width="100" height="100"/>
</g></g><g transform="translate(1830,1098) scale(0.61,0.61)"><g transform="" style="fill: rgb(255, 255, 255);">
<g>
	<path d="M40.625,0H100v100H40.625L0,50L40.625,0z"/>
</g>
</g></g><g transform="translate(1891,1098) scale(0.61,0.61)"><g transform="" style="fill: rgb(255, 255, 255);">
<g>
	<path d="M100,34.375c0-9.505-3.354-17.611-10.059-24.316S75.131,0,65.625,0H0v100h100V34.375z"/>
</g>
</g></g><g transform="translate(0,1159) scale(0.61,0.61)"><g transform="" style="fill: rgb(255, 255, 255);">
<g>
	<path d="M100,40.625V100H0V40.625L50,0L100,40.625z"/>
</g>
</g></g><g transform="translate(549,1159) scale(0.61,0.61)"><g transform="" style="fill: rgb(255, 255, 255);">
<g>
	<path d="M100,40.625V100H0V40.625L50,0L100,40.625z"/>
</g>
</g></g><g transform="translate(732,1159) scale(0.61,0.61)"><g transform="" style="fill: rgb(255, 255, 255);">
<g>
	<path d="M100,0H0v65.625c0,9.506,3.353,17.611,10.059,24.316S24.87,100,34.375,100H100V0z"/>
</g>
</g></g><g transform="translate(793,1159) scale(0.61,0.61)"><g transform="" style="fill: rgb(255, 255, 255);">
<g>
	<path d="M59.375,0H0v100h59.375L100,50L59.375,0z"/>
</g>
</g></g><g transform="translate(915,1159) scale(0.61,0.61)"><g transform="" style="fill: rgb(255, 255, 255);">
<rect width="100" height="100"/>
</g></g><g transform="translate(976,1159) scale(0.61,0.61)"><g transform="" style="fill: rgb(255, 255, 255);">
<rect width="100" height="100"/>
</g></g><g transform="translate(1037,1159) scale(0.61,0.61)"><g transform="" style="fill: rgb(255, 255, 255);">
<rect width="100" height="100"/>
</g></g><g transform="translate(1098,1159) scale(0.61,0.61)"><g transform="" style="fill: rgb(255, 255, 255);">
<rect width="100" height="100"/>
</g></g><g transform="translate(1159,1159) scale(0.61,0.61)"><g transform="" style="fill: rgb(255, 255, 255);">
<g>
	<path d="M59.375,0H0v100h59.375L100,50L59.375,0z"/>
</g>
</g></g><g transform="translate(1342,1159) scale(0.61,0.61)"><g transform="" style="fill: rgb(255, 255, 255);">
<g>
	<path d="M40.625,0H100v100H40.625L0,50L40.625,0z"/>
</g>
</g></g><g transform="translate(1403,1159) scale(0.61,0.61)"><g transform="" style="fill: rgb(255, 255, 255);">
<rect width="100" height="100"/>
</g></g><g transform="translate(1464,1159) scale(0.61,0.61)"><g transform="" style="fill: rgb(255, 255, 255);">
<rect width="100" height="100"/>
</g></g><g transform="translate(1525,1159) scale(0.61,0.61)"><g transform="" style="fill: rgb(255, 255, 255);">
<rect width="100" height="100"/>
</g></g><g transform="translate(1586,1159) scale(0.61,0.61)"><g transform="" style="fill: rgb(255, 255, 255);">
<g>
	<path d="M100,0H0v100h65.625c9.506,0,17.611-3.354,24.316-10.059S100,75.131,100,65.625V0z"/>
</g>
</g></g><g transform="translate(1708,1159) scale(0.61,0.61)"><g transform="" style="fill: rgb(255, 255, 255);">
<g>
	<path d="M100,59.375V0H0v59.375L50,100L100,59.375z"/>
</g>
</g></g><g transform="translate(1891,1159) scale(0.61,0.61)"><g transform="" style="fill: rgb(255, 255, 255);">
<g>
	<path d="M100,0H0v65.625c0,9.506,3.353,17.611,10.059,24.316S24.87,100,34.375,100H100V0z"/>
</g>
</g></g><g transform="translate(1952,1159) scale(0.61,0.61)"><g transform="" style="fill: rgb(255, 255, 255);">
<g>
	<path d="M100,34.375c0-9.505-3.354-17.611-10.059-24.316S75.131,0,65.625,0H0v100h100V34.375z"/>
</g>
</g></g><g transform="translate(0,1220) scale(0.61,0.61)"><g transform="" style="fill: rgb(255, 255, 255);">
<rect width="100" height="100"/>
</g></g><g transform="translate(61,1220) scale(0.61,0.61)"><g transform="" style="fill: rgb(255, 255, 255);">
<rect width="100" height="100"/>
</g></g><g transform="translate(122,1220) scale(0.61,0.61)"><g transform="" style="fill: rgb(255, 255, 255);">
<g>
	<path d="M59.375,0H0v100h59.375L100,50L59.375,0z"/>
</g>
</g></g><g transform="translate(244,1220) scale(0.61,0.61)"><g transform="" style="fill: rgb(255, 255, 255);">
<g>
	<path d="M100,40.625V100H0V40.625L50,0L100,40.625z"/>
</g>
</g></g><g transform="translate(366,1220) scale(0.61,0.61)"><g transform="" style="fill: rgb(255, 255, 255);">
<g>
	<path d="M40.625,0H100v100H40.625L0,50L40.625,0z"/>
</g>
</g></g><g transform="translate(427,1220) scale(0.61,0.61)"><g transform="" style="fill: rgb(255, 255, 255);">
<rect width="100" height="100"/>
</g></g><g transform="translate(488,1220) scale(0.61,0.61)"><g transform="" style="fill: rgb(255, 255, 255);">
<rect width="100" height="100"/>
</g></g><g transform="translate(549,1220) scale(0.61,0.61)"><g transform="" style="fill: rgb(255, 255, 255);">
<rect width="100" height="100"/>
</g></g><g transform="translate(610,1220) scale(0.61,0.61)"><g transform="" style="fill: rgb(255, 255, 255);">
<rect width="100" height="100"/>
</g></g><g transform="translate(671,1220) scale(0.61,0.61)"><g transform="" style="fill: rgb(255, 255, 255);">
<g>
	<path d="M59.375,0H0v100h59.375L100,50L59.375,0z"/>
</g>
</g></g><g transform="translate(915,1220) scale(0.61,0.61)"><g transform="" style="fill: rgb(255, 255, 255);">
<rect width="100" height="100"/>
</g></g><g transform="translate(976,1220) scale(0.61,0.61)"><g transform="" style="fill: rgb(255, 255, 255);">
<rect width="100" height="100"/>
</g></g><g transform="translate(1281,1220) scale(0.61,0.61)"><g transform="" style="fill: rgb(255, 255, 255);">
<g>
	<path d="M100,40.625V100H0V40.625L50,0L100,40.625z"/>
</g>
</g></g><g transform="translate(1769,1220) scale(0.61,0.61)"><g transform="" style="fill: rgb(255, 255, 255);">
<g>
	<path d="M40.625,0H100v100H40.625L0,50L40.625,0z"/>
</g>
</g></g><g transform="translate(1830,1220) scale(0.61,0.61)"><g transform="" style="fill: rgb(255, 255, 255);">
<g>
	<path d="M100,34.375c0-9.505-3.354-17.611-10.059-24.316S75.131,0,65.625,0H0v100h100V34.375z"/>
</g>
</g></g><g transform="translate(1952,1220) scale(0.61,0.61)"><g transform="" style="fill: rgb(255, 255, 255);">
<rect width="100" height="100"/>
</g></g><g transform="translate(0,1281) scale(0.61,0.61)"><g transform="" style="fill: rgb(255, 255, 255);">
<g>
	<path d="M100,59.375V0H0v59.375L50,100L100,59.375z"/>
</g>
</g></g><g transform="translate(183,1281) scale(0.61,0.61)"><g transform="" style="fill: rgb(255, 255, 255);">
<g>
	<path d="M40.625,0H100v100H40.625L0,50L40.625,0z"/>
</g>
</g></g><g transform="translate(244,1281) scale(0.61,0.61)"><g transform="" style="fill: rgb(255, 255, 255);">
<rect width="100" height="100"/>
</g></g><g transform="translate(488,1281) scale(0.61,0.61)"><g transform="" style="fill: rgb(255, 255, 255);">
<g>
	<path d="M100,0H0v65.625c0,9.506,3.353,17.611,10.059,24.316S24.87,100,34.375,100H100V0z"/>
</g>
</g></g><g transform="translate(549,1281) scale(0.61,0.61)"><g transform="" style="fill: rgb(255, 255, 255);">
<rect width="100" height="100"/>
</g></g><g transform="translate(610,1281) scale(0.61,0.61)"><g transform="" style="fill: rgb(255, 255, 255);">
<g>
	<path d="M100,0H0v100h65.625c9.506,0,17.611-3.354,24.316-10.059S100,75.131,100,65.625V0z"/>
</g>
</g></g><g transform="translate(854,1281) scale(0.61,0.61)"><g transform="" style="fill: rgb(255, 255, 255);">
<g>
	<path d="M100,34.375V0H34.375C24.87,0,16.764,3.353,10.059,10.059S0,24.87,0,34.375V100h100V34.375z"/>
</g>
</g></g><g transform="translate(915,1281) scale(0.61,0.61)"><g transform="" style="fill: rgb(255, 255, 255);">
<rect width="100" height="100"/>
</g></g><g transform="translate(976,1281) scale(0.61,0.61)"><g transform="" style="fill: rgb(255, 255, 255);">
<g>
	<path d="M100,0H0v100h65.625c9.506,0,17.611-3.354,24.316-10.059S100,75.131,100,65.625V0z"/>
</g>
</g></g><g transform="translate(1159,1281) scale(0.61,0.61)"><g transform="" style="fill: rgb(255, 255, 255);">
<g>
	<path d="M40.625,0H100v100H40.625L0,50L40.625,0z"/>
</g>
</g></g><g transform="translate(1220,1281) scale(0.61,0.61)"><g transform="" style="fill: rgb(255, 255, 255);">
<rect width="100" height="100"/>
</g></g><g transform="translate(1281,1281) scale(0.61,0.61)"><g transform="" style="fill: rgb(255, 255, 255);">
<rect width="100" height="100"/>
</g></g><g transform="translate(1403,1281) scale(0.61,0.61)"><g transform="" style="fill: rgb(255, 255, 255);">
<g>
	<path d="M100,40.625V100H0V40.625L50,0L100,40.625z"/>
</g>
</g></g><g transform="translate(1586,1281) scale(0.61,0.61)"><g transform="" style="fill: rgb(255, 255, 255);">
<g>
	<path d="M100,40.625V100H0V40.625L50,0L100,40.625z"/>
</g>
</g></g><g transform="translate(1830,1281) scale(0.61,0.61)"><g transform="" style="fill: rgb(255, 255, 255);">
<rect width="100" height="100"/>
</g></g><g transform="translate(1952,1281) scale(0.61,0.61)"><g transform="" style="fill: rgb(255, 255, 255);">
<rect width="100" height="100"/>
</g></g><g transform="translate(122,1342) scale(0.61,0.61)"><g transform="" style="fill: rgb(255, 255, 255);">
<g>
	<path d="M100,40.625V100H0V40.625L50,0L100,40.625z"/>
</g>
</g></g><g transform="translate(244,1342) scale(0.61,0.61)"><g transform="" style="fill: rgb(255, 255, 255);">
<rect width="100" height="100"/>
</g></g><g transform="translate(305,1342) scale(0.61,0.61)"><g transform="" style="fill: rgb(255, 255, 255);">
<rect width="100" height="100"/>
</g></g><g transform="translate(366,1342) scale(0.61,0.61)"><g transform="" style="fill: rgb(255, 255, 255);">
<rect width="100" height="100"/>
</g></g><g transform="translate(427,1342) scale(0.61,0.61)"><g transform="" style="fill: rgb(255, 255, 255);">
<g>
	<path d="M100,34.375c0-9.505-3.354-17.611-10.059-24.316S75.131,0,65.625,0H0v100h100V34.375z"/>
</g>
</g></g><g transform="translate(549,1342) scale(0.61,0.61)"><g transform="" style="fill: rgb(255, 255, 255);">
<rect width="100" height="100"/>
</g></g><g transform="translate(732,1342) scale(0.61,0.61)"><g transform="" style="fill: rgb(255, 255, 255);">
<g>
	<path d="M40.625,0H100v100H40.625L0,50L40.625,0z"/>
</g>
</g></g><g transform="translate(793,1342) scale(0.61,0.61)"><g transform="" style="fill: rgb(255, 255, 255);">
<rect width="100" height="100"/>
</g></g><g transform="translate(854,1342) scale(0.61,0.61)"><g transform="" style="fill: rgb(255, 255, 255);">
<rect width="100" height="100"/>
</g></g><g transform="translate(915,1342) scale(0.61,0.61)"><g transform="" style="fill: rgb(255, 255, 255);">
<rect width="100" height="100"/>
</g></g><g transform="translate(1281,1342) scale(0.61,0.61)"><g transform="" style="fill: rgb(255, 255, 255);">
<g>
	<path d="M100,59.375V0H0v59.375L50,100L100,59.375z"/>
</g>
</g></g><g transform="translate(1403,1342) scale(0.61,0.61)"><g transform="" style="fill: rgb(255, 255, 255);">
<g>
	<path d="M100,0H0v65.625c0,9.506,3.353,17.611,10.059,24.316S24.87,100,34.375,100H100V0z"/>
</g>
</g></g><g transform="translate(1464,1342) scale(0.61,0.61)"><g transform="" style="fill: rgb(255, 255, 255);">
<rect width="100" height="100"/>
</g></g><g transform="translate(1525,1342) scale(0.61,0.61)"><g transform="" style="fill: rgb(255, 255, 255);">
<rect width="100" height="100"/>
</g></g><g transform="translate(1586,1342) scale(0.61,0.61)"><g transform="" style="fill: rgb(255, 255, 255);">
<rect width="100" height="100"/>
</g></g><g transform="translate(1647,1342) scale(0.61,0.61)"><g transform="" style="fill: rgb(255, 255, 255);">
<g>
	<path d="M59.375,0H0v100h59.375L100,50L59.375,0z"/>
</g>
</g></g><g transform="translate(1830,1342) scale(0.61,0.61)"><g transform="" style="fill: rgb(255, 255, 255);">
<g>
	<path d="M100,0H0v65.625c0,9.506,3.353,17.611,10.059,24.316S24.87,100,34.375,100H100V0z"/>
</g>
</g></g><g transform="translate(1891,1342) scale(0.61,0.61)"><g transform="" style="fill: rgb(255, 255, 255);">
<rect width="100" height="100"/>
</g></g><g transform="translate(1952,1342) scale(0.61,0.61)"><g transform="" style="fill: rgb(255, 255, 255);">
<rect width="100" height="100"/>
</g></g><g transform="translate(61,1403) scale(0.61,0.61)"><g transform="" style="fill: rgb(255, 255, 255);">
<g>
	<path d="M40.625,0H100v100H40.625L0,50L40.625,0z"/>
</g>
</g></g><g transform="translate(122,1403) scale(0.61,0.61)"><g transform="" style="fill: rgb(255, 255, 255);">
<rect width="100" height="100"/>
</g></g><g transform="translate(183,1403) scale(0.61,0.61)"><g transform="" style="fill: rgb(255, 255, 255);">
<rect width="100" height="100"/>
</g></g><g transform="translate(244,1403) scale(0.61,0.61)"><g transform="" style="fill: rgb(255, 255, 255);">
<rect width="100" height="100"/>
</g></g><g transform="translate(427,1403) scale(0.61,0.61)"><g transform="" style="fill: rgb(255, 255, 255);">
<rect width="100" height="100"/>
</g></g><g transform="translate(549,1403) scale(0.61,0.61)"><g transform="" style="fill: rgb(255, 255, 255);">
<rect width="100" height="100"/>
</g></g><g transform="translate(671,1403) scale(0.61,0.61)"><g transform="" style="fill: rgb(255, 255, 255);">
<g>
	<path d="M100,65.625c0,9.506-3.354,17.611-10.059,24.316S75.131,100,65.625,100h-31.25c-9.505,0-17.611-3.354-24.316-10.059
		S0,75.131,0,65.625v-31.25c0-9.505,3.353-17.611,10.059-24.316S24.87,0,34.375,0h31.25c9.506,0,17.611,3.353,24.316,10.059
		S100,24.87,100,34.375V65.625z"/>
</g>
</g></g><g transform="translate(854,1403) scale(0.61,0.61)"><g transform="" style="fill: rgb(255, 255, 255);">
<g>
	<path d="M100,0H0v65.625c0,9.506,3.353,17.611,10.059,24.316S24.87,100,34.375,100H100V0z"/>
</g>
</g></g><g transform="translate(915,1403) scale(0.61,0.61)"><g transform="" style="fill: rgb(255, 255, 255);">
<g>
	<path d="M100,0H0v100h65.625c9.506,0,17.611-3.354,24.316-10.059S100,75.131,100,65.625V0z"/>
</g>
</g></g><g transform="translate(1098,1403) scale(0.61,0.61)"><g transform="" style="fill: rgb(255, 255, 255);">
<g>
	<path d="M40.625,0H100v100H40.625L0,50L40.625,0z"/>
</g>
</g></g><g transform="translate(1159,1403) scale(0.61,0.61)"><g transform="" style="fill: rgb(255, 255, 255);">
<rect width="100" height="100"/>
</g></g><g transform="translate(1220,1403) scale(0.61,0.61)"><g transform="" style="fill: rgb(255, 255, 255);">
<g>
	<path d="M59.375,0H0v100h59.375L100,50L59.375,0z"/>
</g>
</g></g><g transform="translate(1464,1403) scale(0.61,0.61)"><g transform="" style="fill: rgb(255, 255, 255);">
<rect width="100" height="100"/>
</g></g><g transform="translate(1586,1403) scale(0.61,0.61)"><g transform="" style="fill: rgb(255, 255, 255);">
<rect width="100" height="100"/>
</g></g><g transform="translate(1769,1403) scale(0.61,0.61)"><g transform="" style="fill: rgb(255, 255, 255);">
<g>
	<path d="M100,40.625V100H0V40.625L50,0L100,40.625z"/>
</g>
</g></g><g transform="translate(1952,1403) scale(0.61,0.61)"><g transform="" style="fill: rgb(255, 255, 255);">
<g>
	<path d="M100,59.375V0H0v59.375L50,100L100,59.375z"/>
</g>
</g></g><g transform="translate(0,1464) scale(0.61,0.61)"><g transform="" style="fill: rgb(255, 255, 255);">
<g>
	<path d="M100,65.625c0,9.506-3.354,17.611-10.059,24.316S75.131,100,65.625,100h-31.25c-9.505,0-17.611-3.354-24.316-10.059
		S0,75.131,0,65.625v-31.25c0-9.505,3.353-17.611,10.059-24.316S24.87,0,34.375,0h31.25c9.506,0,17.611,3.353,24.316,10.059
		S100,24.87,100,34.375V65.625z"/>
</g>
</g></g><g transform="translate(122,1464) scale(0.61,0.61)"><g transform="" style="fill: rgb(255, 255, 255);">
<g>
	<path d="M100,0H0v65.625c0,9.506,3.353,17.611,10.059,24.316S24.87,100,34.375,100H100V0z"/>
</g>
</g></g><g transform="translate(183,1464) scale(0.61,0.61)"><g transform="" style="fill: rgb(255, 255, 255);">
<rect width="100" height="100"/>
</g></g><g transform="translate(244,1464) scale(0.61,0.61)"><g transform="" style="fill: rgb(255, 255, 255);">
<rect width="100" height="100"/>
</g></g><g transform="translate(305,1464) scale(0.61,0.61)"><g transform="" style="fill: rgb(255, 255, 255);">
<rect width="100" height="100"/>
</g></g><g transform="translate(366,1464) scale(0.61,0.61)"><g transform="" style="fill: rgb(255, 255, 255);">
<rect width="100" height="100"/>
</g></g><g transform="translate(427,1464) scale(0.61,0.61)"><g transform="" style="fill: rgb(255, 255, 255);">
<rect width="100" height="100"/>
</g></g><g transform="translate(488,1464) scale(0.61,0.61)"><g transform="" style="fill: rgb(255, 255, 255);">
<rect width="100" height="100"/>
</g></g><g transform="translate(549,1464) scale(0.61,0.61)"><g transform="" style="fill: rgb(255, 255, 255);">
<rect width="100" height="100"/>
</g></g><g transform="translate(732,1464) scale(0.61,0.61)"><g transform="" style="fill: rgb(255, 255, 255);">
<g>
	<path d="M100,40.625V100H0V40.625L50,0L100,40.625z"/>
</g>
</g></g><g transform="translate(1037,1464) scale(0.61,0.61)"><g transform="" style="fill: rgb(255, 255, 255);">
<g>
	<path d="M100,65.625c0,9.506-3.354,17.611-10.059,24.316S75.131,100,65.625,100h-31.25c-9.505,0-17.611-3.354-24.316-10.059
		S0,75.131,0,65.625v-31.25c0-9.505,3.353-17.611,10.059-24.316S24.87,0,34.375,0h31.25c9.506,0,17.611,3.353,24.316,10.059
		S100,24.87,100,34.375V65.625z"/>
</g>
</g></g><g transform="translate(1342,1464) scale(0.61,0.61)"><g transform="" style="fill: rgb(255, 255, 255);">
<g>
	<path d="M100,65.625c0,9.506-3.354,17.611-10.059,24.316S75.131,100,65.625,100h-31.25c-9.505,0-17.611-3.354-24.316-10.059
		S0,75.131,0,65.625v-31.25c0-9.505,3.353-17.611,10.059-24.316S24.87,0,34.375,0h31.25c9.506,0,17.611,3.353,24.316,10.059
		S100,24.87,100,34.375V65.625z"/>
</g>
</g></g><g transform="translate(1464,1464) scale(0.61,0.61)"><g transform="" style="fill: rgb(255, 255, 255);">
<rect width="100" height="100"/>
</g></g><g transform="translate(1525,1464) scale(0.61,0.61)"><g transform="" style="fill: rgb(255, 255, 255);">
<rect width="100" height="100"/>
</g></g><g transform="translate(1586,1464) scale(0.61,0.61)"><g transform="" style="fill: rgb(255, 255, 255);">
<rect width="100" height="100"/>
</g></g><g transform="translate(1647,1464) scale(0.61,0.61)"><g transform="" style="fill: rgb(255, 255, 255);">
<rect width="100" height="100"/>
</g></g><g transform="translate(1708,1464) scale(0.61,0.61)"><g transform="" style="fill: rgb(255, 255, 255);">
<rect width="100" height="100"/>
</g></g><g transform="translate(1769,1464) scale(0.61,0.61)"><g transform="" style="fill: rgb(255, 255, 255);">
<rect width="100" height="100"/>
</g></g><g transform="translate(488,1525) scale(0.61,0.61)"><g transform="" style="fill: rgb(255, 255, 255);">
<rect width="100" height="100"/>
</g></g><g transform="translate(549,1525) scale(0.61,0.61)"><g transform="" style="fill: rgb(255, 255, 255);">
<rect width="100" height="100"/>
</g></g><g transform="translate(732,1525) scale(0.61,0.61)"><g transform="" style="fill: rgb(255, 255, 255);">
<g>
	<path d="M100,0H0v65.625c0,9.506,3.353,17.611,10.059,24.316S24.87,100,34.375,100H100V0z"/>
</g>
</g></g><g transform="translate(793,1525) scale(0.61,0.61)"><g transform="" style="fill: rgb(255, 255, 255);">
<g>
	<path d="M59.375,0H0v100h59.375L100,50L59.375,0z"/>
</g>
</g></g><g transform="translate(915,1525) scale(0.61,0.61)"><g transform="" style="fill: rgb(255, 255, 255);">
<g>
	<path d="M100,65.625c0,9.506-3.354,17.611-10.059,24.316S75.131,100,65.625,100h-31.25c-9.505,0-17.611-3.354-24.316-10.059
		S0,75.131,0,65.625v-31.25c0-9.505,3.353-17.611,10.059-24.316S24.87,0,34.375,0h31.25c9.506,0,17.611,3.353,24.316,10.059
		S100,24.87,100,34.375V65.625z"/>
</g>
</g></g><g transform="translate(1159,1525) scale(0.61,0.61)"><g transform="" style="fill: rgb(255, 255, 255);">
<g>
	<path d="M100,34.375V0H34.375C24.87,0,16.764,3.353,10.059,10.059S0,24.87,0,34.375V100h100V34.375z"/>
</g>
</g></g><g transform="translate(1220,1525) scale(0.61,0.61)"><g transform="" style="fill: rgb(255, 255, 255);">
<g>
	<path d="M100,34.375c0-9.505-3.354-17.611-10.059-24.316S75.131,0,65.625,0H0v100h100V34.375z"/>
</g>
</g></g><g transform="translate(1464,1525) scale(0.61,0.61)"><g transform="" style="fill: rgb(255, 255, 255);">
<rect width="100" height="100"/>
</g></g><g transform="translate(1708,1525) scale(0.61,0.61)"><g transform="" style="fill: rgb(255, 255, 255);">
<rect width="100" height="100"/>
</g></g><g transform="translate(1769,1525) scale(0.61,0.61)"><g transform="" style="fill: rgb(255, 255, 255);">
<g>
	<path d="M100,0H0v100h65.625c9.506,0,17.611-3.354,24.316-10.059S100,75.131,100,65.625V0z"/>
</g>
</g></g><g transform="translate(488,1586) scale(0.61,0.61)"><g transform="" style="fill: rgb(255, 255, 255);">
<rect width="100" height="100"/>
</g></g><g transform="translate(549,1586) scale(0.61,0.61)"><g transform="" style="fill: rgb(255, 255, 255);">
<g>
	<path d="M100,0H0v100h65.625c9.506,0,17.611-3.354,24.316-10.059S100,75.131,100,65.625V0z"/>
</g>
</g></g><g transform="translate(671,1586) scale(0.61,0.61)"><g transform="" style="fill: rgb(255, 255, 255);">
<g>
	<path d="M100,65.625c0,9.506-3.354,17.611-10.059,24.316S75.131,100,65.625,100h-31.25c-9.505,0-17.611-3.354-24.316-10.059
		S0,75.131,0,65.625v-31.25c0-9.505,3.353-17.611,10.059-24.316S24.87,0,34.375,0h31.25c9.506,0,17.611,3.353,24.316,10.059
		S100,24.87,100,34.375V65.625z"/>
</g>
</g></g><g transform="translate(976,1586) scale(0.61,0.61)"><g transform="" style="fill: rgb(255, 255, 255);">
<g>
	<path d="M100,34.375V0H34.375C24.87,0,16.764,3.353,10.059,10.059S0,24.87,0,34.375V100h100V34.375z"/>
</g>
</g></g><g transform="translate(1037,1586) scale(0.61,0.61)"><g transform="" style="fill: rgb(255, 255, 255);">
<rect width="100" height="100"/>
</g></g><g transform="translate(1098,1586) scale(0.61,0.61)"><g transform="" style="fill: rgb(255, 255, 255);">
<rect width="100" height="100"/>
</g></g><g transform="translate(1159,1586) scale(0.61,0.61)"><g transform="" style="fill: rgb(255, 255, 255);">
<rect width="100" height="100"/>
</g></g><g transform="translate(1220,1586) scale(0.61,0.61)"><g transform="" style="fill: rgb(255, 255, 255);">
<rect width="100" height="100"/>
</g></g><g transform="translate(1281,1586) scale(0.61,0.61)"><g transform="" style="fill: rgb(255, 255, 255);">
<g>
	<path d="M100,34.375c0-9.505-3.354-17.611-10.059-24.316S75.131,0,65.625,0H0v100h100V34.375z"/>
</g>
</g></g><g transform="translate(1403,1586) scale(0.61,0.61)"><g transform="" style="fill: rgb(255, 255, 255);">
<g>
	<path d="M100,34.375V0H34.375C24.87,0,16.764,3.353,10.059,10.059S0,24.87,0,34.375V100h100V34.375z"/>
</g>
</g></g><g transform="translate(1464,1586) scale(0.61,0.61)"><g transform="" style="fill: rgb(255, 255, 255);">
<rect width="100" height="100"/>
</g></g><g transform="translate(1586,1586) scale(0.61,0.61)"><g transform="" style="fill: rgb(255, 255, 255);">
<g>
	<path d="M100,65.625c0,9.506-3.354,17.611-10.059,24.316S75.131,100,65.625,100h-31.25c-9.505,0-17.611-3.354-24.316-10.059
		S0,75.131,0,65.625v-31.25c0-9.505,3.353-17.611,10.059-24.316S24.87,0,34.375,0h31.25c9.506,0,17.611,3.353,24.316,10.059
		S100,24.87,100,34.375V65.625z"/>
</g>
</g></g><g transform="translate(1708,1586) scale(0.61,0.61)"><g transform="" style="fill: rgb(255, 255, 255);">
<rect width="100" height="100"/>
</g></g><g transform="translate(1891,1586) scale(0.61,0.61)"><g transform="" style="fill: rgb(255, 255, 255);">
<g>
	<path d="M100,40.625V100H0V40.625L50,0L100,40.625z"/>
</g>
</g></g><g transform="translate(488,1647) scale(0.61,0.61)"><g transform="" style="fill: rgb(255, 255, 255);">
<g>
	<path d="M100,59.375V0H0v59.375L50,100L100,59.375z"/>
</g>
</g></g><g transform="translate(610,1647) scale(0.61,0.61)"><g transform="" style="fill: rgb(255, 255, 255);">
<g>
	<path d="M100,40.625V100H0V40.625L50,0L100,40.625z"/>
</g>
</g></g><g transform="translate(732,1647) scale(0.61,0.61)"><g transform="" style="fill: rgb(255, 255, 255);">
<g>
	<path d="M100,40.625V100H0V40.625L50,0L100,40.625z"/>
</g>
</g></g><g transform="translate(976,1647) scale(0.61,0.61)"><g transform="" style="fill: rgb(255, 255, 255);">
<rect width="100" height="100"/>
</g></g><g transform="translate(1037,1647) scale(0.61,0.61)"><g transform="" style="fill: rgb(255, 255, 255);">
<rect width="100" height="100"/>
</g></g><g transform="translate(1098,1647) scale(0.61,0.61)"><g transform="" style="fill: rgb(255, 255, 255);">
<rect width="100" height="100"/>
</g></g><g transform="translate(1220,1647) scale(0.61,0.61)"><g transform="" style="fill: rgb(255, 255, 255);">
<rect width="100" height="100"/>
</g></g><g transform="translate(1281,1647) scale(0.61,0.61)"><g transform="" style="fill: rgb(255, 255, 255);">
<rect width="100" height="100"/>
</g></g><g transform="translate(1403,1647) scale(0.61,0.61)"><g transform="" style="fill: rgb(255, 255, 255);">
<rect width="100" height="100"/>
</g></g><g transform="translate(1464,1647) scale(0.61,0.61)"><g transform="" style="fill: rgb(255, 255, 255);">
<rect width="100" height="100"/>
</g></g><g transform="translate(1708,1647) scale(0.61,0.61)"><g transform="" style="fill: rgb(255, 255, 255);">
<rect width="100" height="100"/>
</g></g><g transform="translate(1769,1647) scale(0.61,0.61)"><g transform="" style="fill: rgb(255, 255, 255);">
<rect width="100" height="100"/>
</g></g><g transform="translate(1830,1647) scale(0.61,0.61)"><g transform="" style="fill: rgb(255, 255, 255);">
<rect width="100" height="100"/>
</g></g><g transform="translate(1891,1647) scale(0.61,0.61)"><g transform="" style="fill: rgb(255, 255, 255);">
<rect width="100" height="100"/>
</g></g><g transform="translate(1952,1647) scale(0.61,0.61)"><g transform="" style="fill: rgb(255, 255, 255);">
<g>
	<path d="M59.375,0H0v100h59.375L100,50L59.375,0z"/>
</g>
</g></g><g transform="translate(549,1708) scale(0.61,0.61)"><g transform="" style="fill: rgb(255, 255, 255);">
<g>
	<path d="M40.625,0H100v100H40.625L0,50L40.625,0z"/>
</g>
</g></g><g transform="translate(610,1708) scale(0.61,0.61)"><g transform="" style="fill: rgb(255, 255, 255);">
<rect width="100" height="100"/>
</g></g><g transform="translate(732,1708) scale(0.61,0.61)"><g transform="" style="fill: rgb(255, 255, 255);">
<g>
	<path d="M100,0H0v65.625c0,9.506,3.353,17.611,10.059,24.316S24.87,100,34.375,100H100V0z"/>
</g>
</g></g><g transform="translate(793,1708) scale(0.61,0.61)"><g transform="" style="fill: rgb(255, 255, 255);">
<rect width="100" height="100"/>
</g></g><g transform="translate(854,1708) scale(0.61,0.61)"><g transform="" style="fill: rgb(255, 255, 255);">
<rect width="100" height="100"/>
</g></g><g transform="translate(915,1708) scale(0.61,0.61)"><g transform="" style="fill: rgb(255, 255, 255);">
<rect width="100" height="100"/>
</g></g><g transform="translate(976,1708) scale(0.61,0.61)"><g transform="" style="fill: rgb(255, 255, 255);">
<rect width="100" height="100"/>
</g></g><g transform="translate(1037,1708) scale(0.61,0.61)"><g transform="" style="fill: rgb(255, 255, 255);">
<rect width="100" height="100"/>
</g></g><g transform="translate(1098,1708) scale(0.61,0.61)"><g transform="" style="fill: rgb(255, 255, 255);">
<rect width="100" height="100"/>
</g></g><g transform="translate(1159,1708) scale(0.61,0.61)"><g transform="" style="fill: rgb(255, 255, 255);">
<rect width="100" height="100"/>
</g></g><g transform="translate(1220,1708) scale(0.61,0.61)"><g transform="" style="fill: rgb(255, 255, 255);">
<rect width="100" height="100"/>
</g></g><g transform="translate(1281,1708) scale(0.61,0.61)"><g transform="" style="fill: rgb(255, 255, 255);">
<rect width="100" height="100"/>
</g></g><g transform="translate(1342,1708) scale(0.61,0.61)"><g transform="" style="fill: rgb(255, 255, 255);">
<rect width="100" height="100"/>
</g></g><g transform="translate(1403,1708) scale(0.61,0.61)"><g transform="" style="fill: rgb(255, 255, 255);">
<rect width="100" height="100"/>
</g></g><g transform="translate(1464,1708) scale(0.61,0.61)"><g transform="" style="fill: rgb(255, 255, 255);">
<rect width="100" height="100"/>
</g></g><g transform="translate(1525,1708) scale(0.61,0.61)"><g transform="" style="fill: rgb(255, 255, 255);">
<rect width="100" height="100"/>
</g></g><g transform="translate(1586,1708) scale(0.61,0.61)"><g transform="" style="fill: rgb(255, 255, 255);">
<rect width="100" height="100"/>
</g></g><g transform="translate(1647,1708) scale(0.61,0.61)"><g transform="" style="fill: rgb(255, 255, 255);">
<rect width="100" height="100"/>
</g></g><g transform="translate(1708,1708) scale(0.61,0.61)"><g transform="" style="fill: rgb(255, 255, 255);">
<g>
	<path d="M100,0H0v100h65.625c9.506,0,17.611-3.354,24.316-10.059S100,75.131,100,65.625V0z"/>
</g>
</g></g><g transform="translate(1830,1708) scale(0.61,0.61)"><g transform="" style="fill: rgb(255, 255, 255);">
<g>
	<path d="M100,59.375V0H0v59.375L50,100L100,59.375z"/>
</g>
</g></g><g transform="translate(488,1769) scale(0.61,0.61)"><g transform="" style="fill: rgb(255, 255, 255);">
<g>
	<path d="M100,40.625V100H0V40.625L50,0L100,40.625z"/>
</g>
</g></g><g transform="translate(610,1769) scale(0.61,0.61)"><g transform="" style="fill: rgb(255, 255, 255);">
<rect width="100" height="100"/>
</g></g><g transform="translate(793,1769) scale(0.61,0.61)"><g transform="" style="fill: rgb(255, 255, 255);">
<rect width="100" height="100"/>
</g></g><g transform="translate(976,1769) scale(0.61,0.61)"><g transform="" style="fill: rgb(255, 255, 255);">
<rect width="100" height="100"/>
</g></g><g transform="translate(1220,1769) scale(0.61,0.61)"><g transform="" style="fill: rgb(255, 255, 255);">
<rect width="100" height="100"/>
</g></g><g transform="translate(1281,1769) scale(0.61,0.61)"><g transform="" style="fill: rgb(255, 255, 255);">
<rect width="100" height="100"/>
</g></g><g transform="translate(1342,1769) scale(0.61,0.61)"><g transform="" style="fill: rgb(255, 255, 255);">
<rect width="100" height="100"/>
</g></g><g transform="translate(1403,1769) scale(0.61,0.61)"><g transform="" style="fill: rgb(255, 255, 255);">
<g>
	<path d="M100,0H0v100h65.625c9.506,0,17.611-3.354,24.316-10.059S100,75.131,100,65.625V0z"/>
</g>
</g></g><g transform="translate(1647,1769) scale(0.61,0.61)"><g transform="" style="fill: rgb(255, 255, 255);">
<rect width="100" height="100"/>
</g></g><g transform="translate(1769,1769) scale(0.61,0.61)"><g transform="" style="fill: rgb(255, 255, 255);">
<g>
	<path d="M100,65.625c0,9.506-3.354,17.611-10.059,24.316S75.131,100,65.625,100h-31.25c-9.505,0-17.611-3.354-24.316-10.059
		S0,75.131,0,65.625v-31.25c0-9.505,3.353-17.611,10.059-24.316S24.87,0,34.375,0h31.25c9.506,0,17.611,3.353,24.316,10.059
		S100,24.87,100,34.375V65.625z"/>
</g>
</g></g><g transform="translate(1952,1769) scale(0.61,0.61)"><g transform="" style="fill: rgb(255, 255, 255);">
<g>
	<path d="M100,65.625c0,9.506-3.354,17.611-10.059,24.316S75.131,100,65.625,100h-31.25c-9.505,0-17.611-3.354-24.316-10.059
		S0,75.131,0,65.625v-31.25c0-9.505,3.353-17.611,10.059-24.316S24.87,0,34.375,0h31.25c9.506,0,17.611,3.353,24.316,10.059
		S100,24.87,100,34.375V65.625z"/>
</g>
</g></g><g transform="translate(488,1830) scale(0.61,0.61)"><g transform="" style="fill: rgb(255, 255, 255);">
<g>
	<path d="M100,59.375V0H0v59.375L50,100L100,59.375z"/>
</g>
</g></g><g transform="translate(610,1830) scale(0.61,0.61)"><g transform="" style="fill: rgb(255, 255, 255);">
<g>
	<path d="M100,59.375V0H0v59.375L50,100L100,59.375z"/>
</g>
</g></g><g transform="translate(732,1830) scale(0.61,0.61)"><g transform="" style="fill: rgb(255, 255, 255);">
<g>
	<path d="M100,34.375V0H34.375C24.87,0,16.764,3.353,10.059,10.059S0,24.87,0,34.375V100h100V34.375z"/>
</g>
</g></g><g transform="translate(793,1830) scale(0.61,0.61)"><g transform="" style="fill: rgb(255, 255, 255);">
<g>
	<path d="M100,0H0v100h65.625c9.506,0,17.611-3.354,24.316-10.059S100,75.131,100,65.625V0z"/>
</g>
</g></g><g transform="translate(915,1830) scale(0.61,0.61)"><g transform="" style="fill: rgb(255, 255, 255);">
<g>
	<path d="M40.625,0H100v100H40.625L0,50L40.625,0z"/>
</g>
</g></g><g transform="translate(976,1830) scale(0.61,0.61)"><g transform="" style="fill: rgb(255, 255, 255);">
<g>
	<path d="M100,0H0v100h65.625c9.506,0,17.611-3.354,24.316-10.059S100,75.131,100,65.625V0z"/>
</g>
</g></g><g transform="translate(1098,1830) scale(0.61,0.61)"><g transform="" style="fill: rgb(255, 255, 255);">
<g>
	<path d="M100,40.625V100H0V40.625L50,0L100,40.625z"/>
</g>
</g></g><g transform="translate(1220,1830) scale(0.61,0.61)"><g transform="" style="fill: rgb(255, 255, 255);">
<rect width="100" height="100"/>
</g></g><g transform="translate(1342,1830) scale(0.61,0.61)"><g transform="" style="fill: rgb(255, 255, 255);">
<rect width="100" height="100"/>
</g></g><g transform="translate(1586,1830) scale(0.61,0.61)"><g transform="" style="fill: rgb(255, 255, 255);">
<g>
	<path d="M100,34.375V0H34.375C24.87,0,16.764,3.353,10.059,10.059S0,24.87,0,34.375V100h100V34.375z"/>
</g>
</g></g><g transform="translate(1647,1830) scale(0.61,0.61)"><g transform="" style="fill: rgb(255, 255, 255);">
<rect width="100" height="100"/>
</g></g><g transform="translate(1830,1830) scale(0.61,0.61)"><g transform="" style="fill: rgb(255, 255, 255);">
<g>
	<path d="M100,65.625c0,9.506-3.354,17.611-10.059,24.316S75.131,100,65.625,100h-31.25c-9.505,0-17.611-3.354-24.316-10.059
		S0,75.131,0,65.625v-31.25c0-9.505,3.353-17.611,10.059-24.316S24.87,0,34.375,0h31.25c9.506,0,17.611,3.353,24.316,10.059
		S100,24.87,100,34.375V65.625z"/>
</g>
</g></g><g transform="translate(549,1891) scale(0.61,0.61)"><g transform="" style="fill: rgb(255, 255, 255);">
<g>
	<path d="M100,65.625c0,9.506-3.354,17.611-10.059,24.316S75.131,100,65.625,100h-31.25c-9.505,0-17.611-3.354-24.316-10.059
		S0,75.131,0,65.625v-31.25c0-9.505,3.353-17.611,10.059-24.316S24.87,0,34.375,0h31.25c9.506,0,17.611,3.353,24.316,10.059
		S100,24.87,100,34.375V65.625z"/>
</g>
</g></g><g transform="translate(732,1891) scale(0.61,0.61)"><g transform="" style="fill: rgb(255, 255, 255);">
<rect width="100" height="100"/>
</g></g><g transform="translate(854,1891) scale(0.61,0.61)"><g transform="" style="fill: rgb(255, 255, 255);">
<g>
	<path d="M100,65.625c0,9.506-3.354,17.611-10.059,24.316S75.131,100,65.625,100h-31.25c-9.505,0-17.611-3.354-24.316-10.059
		S0,75.131,0,65.625v-31.25c0-9.505,3.353-17.611,10.059-24.316S24.87,0,34.375,0h31.25c9.506,0,17.611,3.353,24.316,10.059
		S100,24.87,100,34.375V65.625z"/>
</g>
</g></g><g transform="translate(1037,1891) scale(0.61,0.61)"><g transform="" style="fill: rgb(255, 255, 255);">
<g>
	<path d="M100,34.375V0H34.375C24.87,0,16.764,3.353,10.059,10.059S0,24.87,0,34.375V100h100V34.375z"/>
</g>
</g></g><g transform="translate(1098,1891) scale(0.61,0.61)"><g transform="" style="fill: rgb(255, 255, 255);">
<rect width="100" height="100"/>
</g></g><g transform="translate(1220,1891) scale(0.61,0.61)"><g transform="" style="fill: rgb(255, 255, 255);">
<g>
	<path d="M100,59.375V0H0v59.375L50,100L100,59.375z"/>
</g>
</g></g><g transform="translate(1342,1891) scale(0.61,0.61)"><g transform="" style="fill: rgb(255, 255, 255);">
<g>
	<path d="M100,0H0v65.625c0,9.506,3.353,17.611,10.059,24.316S24.87,100,34.375,100H100V0z"/>
</g>
</g></g><g transform="translate(1403,1891) scale(0.61,0.61)"><g transform="" style="fill: rgb(255, 255, 255);">
<rect width="100" height="100"/>
</g></g><g transform="translate(1464,1891) scale(0.61,0.61)"><g transform="" style="fill: rgb(255, 255, 255);">
<rect width="100" height="100"/>
</g></g><g transform="translate(1525,1891) scale(0.61,0.61)"><g transform="" style="fill: rgb(255, 255, 255);">
<rect width="100" height="100"/>
</g></g><g transform="translate(1586,1891) scale(0.61,0.61)"><g transform="" style="fill: rgb(255, 255, 255);">
<rect width="100" height="100"/>
</g></g><g transform="translate(1647,1891) scale(0.61,0.61)"><g transform="" style="fill: rgb(255, 255, 255);">
<rect width="100" height="100"/>
</g></g><g transform="translate(1708,1891) scale(0.61,0.61)"><g transform="" style="fill: rgb(255, 255, 255);">
<g>
	<path d="M100,34.375c0-9.505-3.354-17.611-10.059-24.316S75.131,0,65.625,0H0v100h100V34.375z"/>
</g>
</g></g><g transform="translate(1952,1891) scale(0.61,0.61)"><g transform="" style="fill: rgb(255, 255, 255);">
<g>
	<path d="M100,65.625c0,9.506-3.354,17.611-10.059,24.316S75.131,100,65.625,100h-31.25c-9.505,0-17.611-3.354-24.316-10.059
		S0,75.131,0,65.625v-31.25c0-9.505,3.353-17.611,10.059-24.316S24.87,0,34.375,0h31.25c9.506,0,17.611,3.353,24.316,10.059
		S100,24.87,100,34.375V65.625z"/>
</g>
</g></g><g transform="translate(488,1952) scale(0.61,0.61)"><g transform="" style="fill: rgb(255, 255, 255);">
<g>
	<path d="M100,65.625c0,9.506-3.354,17.611-10.059,24.316S75.131,100,65.625,100h-31.25c-9.505,0-17.611-3.354-24.316-10.059
		S0,75.131,0,65.625v-31.25c0-9.505,3.353-17.611,10.059-24.316S24.87,0,34.375,0h31.25c9.506,0,17.611,3.353,24.316,10.059
		S100,24.87,100,34.375V65.625z"/>
</g>
</g></g><g transform="translate(610,1952) scale(0.61,0.61)"><g transform="" style="fill: rgb(255, 255, 255);">
<g>
	<path d="M100,65.625c0,9.506-3.354,17.611-10.059,24.316S75.131,100,65.625,100h-31.25c-9.505,0-17.611-3.354-24.316-10.059
		S0,75.131,0,65.625v-31.25c0-9.505,3.353-17.611,10.059-24.316S24.87,0,34.375,0h31.25c9.506,0,17.611,3.353,24.316,10.059
		S100,24.87,100,34.375V65.625z"/>
</g>
</g></g><g transform="translate(732,1952) scale(0.61,0.61)"><g transform="" style="fill: rgb(255, 255, 255);">
<g>
	<path d="M100,59.375V0H0v59.375L50,100L100,59.375z"/>
</g>
</g></g><g transform="translate(976,1952) scale(0.61,0.61)"><g transform="" style="fill: rgb(255, 255, 255);">
<g>
	<path d="M40.625,0H100v100H40.625L0,50L40.625,0z"/>
</g>
</g></g><g transform="translate(1037,1952) scale(0.61,0.61)"><g transform="" style="fill: rgb(255, 255, 255);">
<rect width="100" height="100"/>
</g></g><g transform="translate(1098,1952) scale(0.61,0.61)"><g transform="" style="fill: rgb(255, 255, 255);">
<g>
	<path d="M100,0H0v100h65.625c9.506,0,17.611-3.354,24.316-10.059S100,75.131,100,65.625V0z"/>
</g>
</g></g><g transform="translate(1281,1952) scale(0.61,0.61)"><g transform="" style="fill: rgb(255, 255, 255);">
<g>
	<path d="M100,65.625c0,9.506-3.354,17.611-10.059,24.316S75.131,100,65.625,100h-31.25c-9.505,0-17.611-3.354-24.316-10.059
		S0,75.131,0,65.625v-31.25c0-9.505,3.353-17.611,10.059-24.316S24.87,0,34.375,0h31.25c9.506,0,17.611,3.353,24.316,10.059
		S100,24.87,100,34.375V65.625z"/>
</g>
</g></g><g transform="translate(1403,1952) scale(0.61,0.61)"><g transform="" style="fill: rgb(255, 255, 255);">
<g>
	<path d="M100,59.375V0H0v59.375L50,100L100,59.375z"/>
</g>
</g></g><g transform="translate(1525,1952) scale(0.61,0.61)"><g transform="" style="fill: rgb(255, 255, 255);">
<g>
	<path d="M100,59.375V0H0v59.375L50,100L100,59.375z"/>
</g>
</g></g><g transform="translate(1708,1952) scale(0.61,0.61)"><g transform="" style="fill: rgb(255, 255, 255);">
<g>
	<path d="M100,59.375V0H0v59.375L50,100L100,59.375z"/>
</g>
</g></g><g transform="translate(1830,1952) scale(0.61,0.61)"><g transform="" style="fill: rgb(255, 255, 255);">
<g>
	<path d="M100,65.625c0,9.506-3.354,17.611-10.059,24.316S75.131,100,65.625,100h-31.25c-9.505,0-17.611-3.354-24.316-10.059
		S0,75.131,0,65.625v-31.25c0-9.505,3.353-17.611,10.059-24.316S24.87,0,34.375,0h31.25c9.506,0,17.611,3.353,24.316,10.059
		S100,24.87,100,34.375V65.625z"/>
</g>
</g></g><g transform="translate(0,0) scale(4.27, 4.27)"><g transform="" style="fill: rgb(255, 255, 255);">
<g>
	<rect x="15" y="15" style="fill:none;" width="70" height="70"/>
	<path d="M85,0H15H0v15v70v15h15h70h15V85V15V0H85z M85,85H15V15h70V85z"/>
</g>
</g></g><g transform="translate(1586,0) scale(4.27, 4.27)"><g transform="" style="fill: rgb(255, 255, 255);">
<g>
	<rect x="15" y="15" style="fill:none;" width="70" height="70"/>
	<path d="M85,0H15H0v15v70v15h15h70h15V85V15V0H85z M85,85H15V15h70V85z"/>
</g>
</g></g><g transform="translate(0,1586) scale(4.27, 4.27)"><g transform="" style="fill: rgb(255, 255, 255);">
<g>
	<rect x="15" y="15" style="fill:none;" width="70" height="70"/>
	<path d="M85,0H15H0v15v70v15h15h70h15V85V15V0H85z M85,85H15V15h70V85z"/>
</g>
</g></g><g transform="translate(122,122) scale(1.83, 1.83)"><g transform="" style="fill: rgb(255, 255, 255);">
<rect width="100" height="100"/>
</g></g><g transform="translate(1708,122) scale(1.83, 1.83)"><g transform="" style="fill: rgb(255, 255, 255);">
<rect width="100" height="100"/>
</g></g><g transform="translate(122,1708) scale(1.83, 1.83)"><g transform="" style="fill: rgb(255, 255, 255);">
<rect width="100" height="100"/>
</g></g></g></mask></defs></g><rect x="0" y="0" width="2013" height="2013" fill="url(#grad)" mask="url(#gmask)" /></g></svg>